/* XPM */
static char *result[] = {
/* columns rows colors chars-per-pixel */
"64 64 41 1 ",
"  c black",
". c #0D0A08",
"X c #5C493D",
"o c #695446",
"O c #685345",
"+ c #0C0A08",
"@ c #0C0908",
"# c #5A4639",
"$ c #675141",
"% c #665041",
"& c #675041",
"* c #0C0907",
"= c #0B0705",
"- c #4E3522",
"; c #593D27",
": c #583C27",
"> c #0A0704",
", c #4C321F",
"< c #573923",
"1 c #563923",
"2 c #0A0604",
"3 c #4C331F",
"4 c #573A24",
"5 c #573A23",
"6 c #090604",
"7 c #432C1B",
"8 c #080603",
"9 c #0A0807",
"0 c #010101",
"q c #5C4A3E",
"w c #514136",
"e c #0B0807",
"r c #675142",
"t c #5A473A",
"y c #090603",
"u c #0B0704",
"i c #080503",
"p c #0B0907",
"a c #5D4A3E",
"s c #010100",
"d c white",
/* pixels */
" .XoOOOOOOOOOOOOOOOOOOOOOOOOOOoX+@XoOOOOOOOOOOOOOOOOOOOOOOOOOOOO",
" +#$%%%%%%%%%%%%%%%%%%%%%%%%%%&#**#$%%%%%%%%%%%%%%%%%%%%%%%%%%%%",
" =-;::::::::::::::::::::::::::;->>-;::::::::::::::::::::::::::::",
" >,<111111111111111111111111111,>2,<1111111111111111111111111111",
" >,<11111111111111111111111111<,>2,<1111111111111111111111111111",
" >,<11111111111111111111111111<,>2,<1111111111111111111111111111",
" >,<11111111111111111111111111<,>2,<1111111111111111111111111111",
" >,<11111111111111111111111111<,>2,<1111111111111111111111111111",
" >,<11111111111111111111111111<,>2,<1111111111111111111111111111",
" >,<11111111111111111111111111<,>2,<1111111111111111111111111111",
" >,<11111111111111111111111111<,>2,<1111111111111111111111111111",
" >,<11111111111111111111111111<,>2,<1111111111111111111111111111",
" >34<<<<<<<<<<<<<<<<<<<<<<<<<<53>>34<<<<<<<<<<<<<<<<<<<<<<<<<<<<",
" 673,,,,,,,,,,,,,,,,,,,,,,,,,,376673,,,,,,,,,,,,,,,,,,,,,,,,,,,,",
"  82222222222222>>22222222222228  82222222222222>>22222222222222",
"..+++++++++++++9009+++++++++++++..+++++++++++++9009+++++++++++++",
"XXXXXXXXXXXXXXqw9ewqXXXXXXXXXXXXXXXXXXXXXXXXXXqw9ewqXXXXXXXXXXXX",
"$&&$$&&&&&&&&$rt*@tr&&&&&&&$$&&$$$$$$&&&&&&&&$rt*@tr&$$&&&&$$&&$",
"::::::::::::::;->>-;::::::::::::::::::::::::::;->>-;::::::::::::",
"11111111111111<,2>,<11111111111111111111111111<,2>,<111111111111",
"11111111111111<,2>,<11111111111111111111111111<,2>,<111111111111",
"11111111111111<,2>,<11111111111111111111111111<,2>,<111111111111",
"11111111111111<,2>,<11111111111111111111111111<,2>,<111111111111",
"11111111111111<,2>,<11111111111111111111111111<,2>,<111111111111",
"11111111111111<,2>,<11111111111111111111111111<,2>,<111111111111",
"11111111111111<,2>,<11111111111111111111111111<,2>,<111111111111",
"11111111111111<,2>,<11111111111111111111111111<,2>,<111111111111",
"11111111111111<,2>,<11111111111111111111111111<,2>,<111111111111",
"<<<<<<<<<<<<<<43>>34<<<<<<<<<<<<<<<<<<<<<<<<<<43>>34<<<<<<<<<<<<",
",,,,,,,,,,,,,,37y673,,,,,,,,,,,,,,,,,,,,,,,,,,37y673,,,,,,,,,,,,",
"u>2222222222222i  i2222222222222>>2222222222222i  i2222222222222",
" 0p+++++++++++++..+++++++++++++p00p+++++++++++++..++++++++++++++",
" pwaXXXXXXXXXXXXXXXXXXXXXXXXXXawe9waXXXXXXXXXXXXXXXXXXXXXXXXXXXX",
" +tr$&&&&&&&&$$$$$$&&&&&&&&$$&rt@*tr$&&&&&&&&$$$$$$&&$$&&&&$$&&$",
" =-;::::::::::::::::::::::::::;->>-;::::::::::::::::::::::::::::",
" >,<111111111111111111111111111,>2,<1111111111111111111111111111",
" >,<11111111111111111111111111<,>2,<1111111111111111111111111111",
" >,<11111111111111111111111111<,>2,<1111111111111111111111111111",
" >,<11111111111111111111111111<,>2,<1111111111111111111111111111",
" >,<11111111111111111111111111<,>2,<1111111111111111111111111111",
" >,<11111111111111111111111111<,>2,<1111111111111111111111111111",
" >,<11111111111111111111111111<,>2,<1111111111111111111111111111",
" >,<11111111111111111111111111<,>2,<1111111111111111111111111111",
" >,<11111111111111111111111111<,>2,<1111111111111111111111111111",
" >34<<<<<<<<<<<<<<<<<<<<<<<<<<53>>34<<<<<<<<<<<<<<<<<<<<<<<<<<<<",
" 673,,,,,,,,,,,,,,,,,,,,,,,,,,376673,,,,,,,,,,,,,,,,,,,,,,,,,,,,",
"  82222222222222>>22222222222228  82222222222222>>22222222222222",
"..+++++++++++++9009+++++++++++++..+++++++++++++9009+++++++++++++",
"XXXXXXXXXXXXXXqw9ewqXXXXXXXXXXXXXXXXXXXXXXXXXXqw9ewqXXXXXXXXXXXX",
"$&&$$&&&&&&&&$rt*@tr&&&&&&&$$&&$$$$$$&&&&&&&&$rt*@tr&$$&&&&$$&&$",
"::::::::::::::;->>-;::::::::::::::::::::::::::;->>-;::::::::::::",
"11111111111111<,2>,<11111111111111111111111111<,2>,<111111111111",
"11111111111111<,2>,<11111111111111111111111111<,2>,<111111111111",
"11111111111111<,2>,<11111111111111111111111111<,2>,<111111111111",
"11111111111111<,2>,<11111111111111111111111111<,2>,<111111111111",
"11111111111111<,2>,<11111111111111111111111111<,2>,<111111111111",
"11111111111111<,2>,<11111111111111111111111111<,2>,<111111111111",
"11111111111111<,2>,<11111111111111111111111111<,2>,<111111111111",
"11111111111111<,2>,<11111111111111111111111111<,2>,<111111111111",
"11111111111111<,2>,<11111111111111111111111111<,2>,<111111111111",
"<<<<<<<<<<<<<<43>>34<<<<<<<<<<<<<<<<<<<<<<<<<<43>>34<<<<<<<<<<<<",
",,,,,,,,,,,,,,37y673,,,,,,,,,,,,,,,,,,,,,,,,,,37y673,,,,,,,,,,,,",
">>>>>>>>>>>>>>>6ss6>>>>>>>>>>>>>>>>>>>>>>>>>>>>6ss6>>>>>>>>>>>>>",
"                                                                "
};
