/* XPM */
static char *result[] = {
/* columns rows colors chars-per-pixel */
"64 64 157 2 ",
"   c #08090E",
".  c #0C0C0E",
"X  c #0C0D0F",
"o  c #0E0E0F",
"O  c #080910",
"+  c #080A10",
"@  c #080A11",
"#  c #0C0D10",
"$  c #0E0E10",
"%  c #0E0F10",
"&  c #101010",
"*  c #111110",
"=  c #121110",
"-  c #121210",
";  c #121211",
":  c #2C240E",
">  c #2C250E",
",  c #2D260E",
"<  c #2D2714",
"1  c #2D2815",
"2  c #2D291D",
"3  c #2D2A1E",
"4  c #55420B",
"5  c #5E490B",
"6  c #574A1A",
"7  c #604A0A",
"8  c #604A0B",
"9  c #624F09",
"0  c #624C0A",
"q  c #634C0A",
"w  c #634D0A",
"e  c #614E0B",
"r  c #624F0A",
"t  c #624F0B",
"y  c #64510A",
"u  c #65520D",
"i  c #655210",
"p  c #65551A",
"a  c #61521C",
"s  c #62531D",
"d  c #65551C",
"f  c #65561C",
"g  c #65561D",
"h  c #574F33",
"j  c #655A34",
"k  c #615838",
"l  c #625A3B",
"z  c #655C3B",
"x  c #987407",
"c  c #9A7807",
"v  c #9B7B07",
"b  c #9B7E12",
"n  c #9A7C19",
"m  c #9B7F19",
"M  c #A57D06",
"N  c #A67D06",
"B  c #9B8226",
"V  c #AA8E27",
"C  c #AB8E27",
"Z  c #DBA402",
"A  c #DCA502",
"S  c #DEAA02",
"D  c #E0AD02",
"F  c #E2B100",
"G  c #E1B102",
"H  c #E2B202",
"J  c #F7B800",
"K  c #F8B900",
"L  c #F9B900",
"P  c #F8BA00",
"I  c #F9BB00",
"U  c #FABA00",
"Y  c #FBBB00",
"T  c #FABE00",
"R  c #FBBE00",
"E  c #FCBC00",
"W  c #E2BB2C",
"Q  c #E1BA2F",
"!  c #E1BB2F",
"~  c #E2BB2E",
"^  c #E2BC2F",
"/  c #E2BD38",
"(  c #FCC300",
")  c #FDC300",
"_  c #FDC500",
"`  c #FEC400",
"'  c #FEC600",
"]  c #FEC700",
"[  c #FFC700",
"{  c #FAC006",
"}  c #FEC800",
"|  c #FFC800",
" . c #FFC900",
".. c #FFC801",
"X. c #FFCA00",
"o. c #FFC802",
"O. c #FFC904",
"+. c #FEC906",
"@. c #FFC906",
"#. c #FFCA0C",
"$. c #FAC212",
"%. c #FBC212",
"&. c #FECB10",
"*. c #FFCB10",
"=. c #FECB12",
"-. c #FFCC10",
";. c #FFCC12",
":. c #FFCD15",
">. c #FFCE1D",
",. c #FFCE1E",
"<. c #FFCF1F",
"1. c #FFCF20",
"2. c #FECF21",
"3. c #FFCF21",
"4. c #FFD023",
"5. c #FFD027",
"6. c #FFD12A",
"7. c #FED12D",
"8. c #FFD22D",
"9. c #FFD22E",
"0. c #FFD32F",
"q. c #FFD331",
"w. c #FFD332",
"e. c #FED233",
"r. c #FFD333",
"t. c #FFD431",
"y. c #FFD433",
"u. c #FFD533",
"i. c #FFD633",
"p. c #FFD334",
"a. c #FFD335",
"s. c #FFD434",
"d. c #FFD534",
"f. c #FFD634",
"g. c #FFD734",
"h. c #FFD73F",
"j. c #AA995D",
"k. c #AB9A5D",
"l. c #E1BE40",
"z. c #FFD951",
"x. c #FEDA57",
"c. c #FFDB57",
"v. c #FFDB58",
"b. c #E2C970",
"n. c #E1CB78",
"m. c #E2CB78",
"M. c #E2CB79",
"N. c #E2CC79",
"B. c #FEE176",
"V. c #FFE176",
"C. c #FFE580",
"Z. c #FFE68A",
"A. c #FFE78A",
"S. c #FFE78B",
"D. c #FFE88A",
"F. c #FFE98A",
"G. c None",
/* pixels */
"G.G.G.G.G.G.G.G.G.G.G.G.G.G.G.G.G.G.G.G.G.G.G.G.G.G.G.G.G.G.G.G.G.G.G.G.G.G.G.G.G.G.G.G.G.G.G.G.G.G.G.G.G.G.G.G.G.G.G.G.G.G.G.G.",
"G.G.G.G.G.G.G.G.G.G.G.G.G.G.G.G.G.G.G.G.G.G.G.G.G.G.G.G.G.G.G.G.G.G.G.G.G.G.G.G.G.G.G.G.G.G.G.G.G.G.G.G.G.G.G.G.G.G.G.G.G.G.G.G.",
"G.G.G.G.G.G.G.G.G.G.G.G.G.G.G.G.G.G.G.G.G.G.G.G.G.G.G.G.G.G.G.G.G.G.G.G.G.G.G.G.G.G.G.G.G.G.G.G.G.G.G.G.G.G.G.G.G.G.G.G.G.G.G.G.",
"G.G.G.G.G.G.G.G.G.G.G.G.G.G.G.G.G.G.G.G.G.G.G.G.G.G.G.G.G.G.G.G.G.G.G.G.G.G.G.G.G.G.G.G.G.G.G.G.G.G.G.G.G.G.G.G.G.G.G.G.G.G.G.G.",
"G.G.G.G.G.G.G.G.G.G.G.G.G.G.G.G.G.G.G.G.G.G.G.G.G.G.G.G.G.G.G.G.G.G.G.G.G.G.G.G.G.G.G.G.G.G.G.G.G.G.G.G.G.G.G.G.G.G.G.G.G.G.G.G.",
"G.G.G.G.G.G.G.G.G.G.G.G.G.G.G.G.G.G.G.G.G.G.G.G.G.G.G.G.G.G.G.G.G.G.G.G.G.G.G.G.G.G.G.G.G.G.G.G.G.G.G.G.G.G.G.G.G.G.G.G.G.G.G.G.",
"G.G.G.G.G.G.G.G.G.G.G.G.G.G.G.G.G.G.G.G.G.G.G.G.G.G.G.G.G.G.G.G.G.G.G.G.G.G.G.G.G.G.G.G.G.G.G.G.G.G.G.G.G.G.G.G.G.G.G.G.G.G.G.G.",
"G.G.G.G.G.G.G.G.G.G.G.G.G.G.G.G.G.G.G.G.G.G.G.G.G.G.G.G.G.G.G.G.G.G.G.G.G.G.G.G.G.G.G.G.G.G.G.G.G.G.G.G.G.G.G.G.G.G.G.G.G.G.G.G.",
"G.G.G.G.G.G.G.G.G.G.G.G.G.G.G.G.G.G.G.G.G.G.G.G.G.G.G.G.G.G.G.G.G.G.G.G.G.G.G.G.G.G.G.G.G.G.G.G.G.G.G.G.G.G.G.G.G.G.G.G.G.G.G.G.",
"G.G.G.G.G.G.G.G.G.G.G.G.G.G.G.G.G.G.G.G.G.G.G.G.G.G.G.G.G.G.G.G.G.G.G.G.G.G.G.G.G.G.G.G.G.G.G.G.G.G.G.G.G.G.G.G.G.G.G.G.G.G.G.G.",
"G.G.G.G.G.G.G.G.G.G.G.G.G.G.G.G.G.G.G.G.G.G.G.G.G.G.G.G.G.G.G.G.G.G.G.G.G.G.G.G.G.G.G.G.G.G.G.G.G.G.G.G.G.G.G.G.G.G.G.G.G.G.G.G.",
"G.G.G.G.G.G.G.G.G.G.G.G.G.G.G.G.G.G.G.G.G.G.G.G.G.G.G.G.G.G.G.G.G.G.G.G.G.G.G.G.G.G.G.G.G.G.G.G.G.G.G.G.G.G.G.G.G.G.G.G.G.G.G.G.",
"G.G.G.G.G.G.G.G.G.G.G.G.G.G.G.G.G.G.G.G.G.G.G.G.G.G.G.G.G.G.G.G.G.G.G.G.G.G.G.G.G.G.G.G.G.G.G.G.G.G.G.G.G.G.G.G.G.G.G.G.G.G.G.G.",
"G.G.G.G.G.G.G.G.G.G.G.G.G.G.G.G.G.G.G.G.G.G.G.G.G.G.G.& & & & & & & & & & G.G.G.G.G.G.G.G.G.G.G.G.G.G.G.G.G.G.G.G.G.G.G.G.G.G.G.",
"G.G.G.G.G.G.G.G.G.G.G.G.G.G.G.G.G.G.G.G.G.G.G.G.G.G.G.o o % % % % % % % % G.G.G.G.G.G.G.G.G.G.G.G.G.G.G.G.G.G.G.G.G.G.G.G.G.G.G.",
"G.G.G.G.G.G.G.G.G.G.G.G.G.G.G.G.G.G.G.G.G.G.G.G.G.G.G.3 3 < , , , , , , , G.G.G.G.G.G.G.G.G.G.G.G.G.G.G.G.G.G.G.G.G.G.G.G.G.G.G.",
"G.G.G.G.G.G.G.G.G.G.G.G.G.G.G.G.G.G.G.G.G.& & & & . k n.m.W F H H H H H G e # & & & & G.G.G.G.G.G.G.G.G.G.G.G.G.G.G.G.G.G.G.G.G.",
"G.G.G.G.G.G.G.G.G.G.G.G.G.G.G.G.G.G.G.G.G.. . . #   l Z.A.t. . . . . .X. .r @ # X X X G.G.G.G.G.G.G.G.G.G.G.G.G.G.G.G.G.G.G.G.G.",
"G.G.G.G.G.G.G.G.G.G.G.G.G.G.G.G.G.G.G.G.G.h z j i 9 B x.c.<.| | | | | | } v r u p g 6 G.G.G.G.G.G.G.G.G.G.G.G.G.G.G.G.G.G.G.G.G.",
"G.G.G.G.G.G.G.G.G.G.G.G.G.G.G.G.G.G.G.& * j.D.B.&.] } ....| | | | | | | | } ] +.7.f.V * & G.G.G.G.G.G.G.G.G.G.G.G.G.G.G.G.G.G.G.",
"G.G.G.G.G.G.G.G.G.G.G.G.G.G.G.G.G.G.G.* ; k.F.V.-.| | | | | | | | | | | | | | @.8.g.C - * G.G.G.G.G.G.G.G.G.G.G.G.G.G.G.G.G.G.G.",
"G.G.G.G.G.G.G.G.G.G.G.G.G.G.G.G.& . h j.k.l.0.6.@.| | | | | | | | | | | | :.3.4.q.y.Q C V 6 X & G.G.G.G.G.G.G.G.G.G.G.G.G.G.G.G.",
"G.G.G.G.G.G.G.G.G.G.G.G.G.G.G.G.& . z D.F.0.[ | | | | | | | | | | | | | | 3.a.p.r.r.y.f.i.f X & G.G.G.G.G.G.G.G.G.G.G.G.G.G.G.G.",
"G.G.G.G.G.G.G.G.G.G.G.G.G.G.G.G.& . j B.V.6.| | | | | | | | | | | | o.@.@.4.p.r.r.r.r.r.e.d X & G.G.G.G.G.G.G.G.G.G.G.G.G.G.G.G.",
"G.G.G.G.G.G.G.G.G.G.G.G.G.G.G.G.& # i &.-.@.| | | | | | | | | | | | *.8.8.q.r.r.r.r.r.r.e.d X & G.G.G.G.G.G.G.G.G.G.G.G.G.G.G.G.",
"G.G.G.G.G.G.G.G.G.G.G.G.G.G.G.G..   9 ] | | | | | | | | | | | | | | ;.r.r.r.r.r.r.r.r.r.e.s + # G.G.G.G.G.G.G.G.G.G.G.G.G.G.G.G.",
"G.G.G.G.G.G.G.G.G.G.G.G.G.G.G.G.k l B } | | | | | | | | | | | o.*.;.,.r.r.r.r.r.r.r.r.r.e.n 7 5 G.G.G.G.G.G.G.G.G.G.G.G.G.G.G.G.",
"G.G.G.G.G.G.G.G.G.G.G.G.G.& o 3 n.Z.x...| | | | | | | | | | | @.8.r.r.r.r.r.r.r.r.r.r.r.r.$.L Z : % & G.G.G.G.G.G.G.G.G.G.G.G.G.",
"G.G.G.G.G.G.G.G.G.G.G.G.G.& o 3 M.A.c...| | | | | | | | | | | @.8.r.r.r.r.r.r.r.r.r.r.r.r.%.U A : % & G.G.G.G.G.G.G.G.G.G.G.G.G.",
"G.G.G.G.G.G.G.G.G.G.G.G.G.& o 3 M.A.c...| | | | | | | | | :.3.4.q.r.r.r.r.r.r.r.r.p.5.;.;.{ U A : % & G.G.G.G.G.G.G.G.G.G.G.G.G.",
"G.G.G.G.G.G.G.G.G.G.G.G.G.& o 3 N.S.v...| | | | | | | | | 3.a.p.r.r.r.r.r.r.r.r.r.p.3.| | T U A : % & G.G.G.G.G.G.G.G.G.G.G.G.G.",
"G.G.G.G.G.G.G.G.G.G.G.G.G.& o 2 b.C.z...| | | | | | o.@.@.4.p.r.r.r.r.r.r.r.r.w.9.9.>.| | T U A : % & G.G.G.G.G.G.G.G.G.G.G.G.G.",
"G.G.G.G.G.G.G.G.G.G.G.G.G.& $ 1 / h.5.| | | | | | | *.8.8.q.r.r.r.r.r.r.r.r.r.9.#.@.O.| | T U A : % & G.G.G.G.G.G.G.G.G.G.G.G.G.",
"G.G.G.G.G.G.G.G.G.G.G.G.G.& % < ~ u.1.| | | | | | | ;.r.r.r.r.r.r.r.r.r.r.p.p.9.@.| | | | T U A : % & G.G.G.G.G.G.G.G.G.G.G.G.G.",
"G.G.G.G.G.G.G.G.G.G.G.G.G.& % < ^ d.3.| | | | o.*.;.,.r.r.r.r.r.r.r.r.r.r.5.3.>.O.| | | | T U A : % & G.G.G.G.G.G.G.G.G.G.G.G.G.",
"G.G.G.G.G.G.G.G.G.G.G.G.G.& % < ^ d.3.| | | | @.8.r.r.r.r.r.r.r.r.r.r.r.r.;.| | | | | | | R U A : % & G.G.G.G.G.G.G.G.G.G.G.G.G.",
"G.G.G.G.G.G.G.G.G.G.G.G.G.& % < ! s.2.| | | | @.8.r.r.r.r.r.r.r.r.r.r.r.r.;.| | | | | | | T L Z : % & G.G.G.G.G.G.G.G.G.G.G.G.G.",
"G.G.G.G.G.G.G.G.G.G.G.G.G.G.G.G.a s b } | :.3.4.q.r.r.r.r.r.r.r.r.p.5.;.;.@.| | | | _ R T x 7 5 G.G.G.G.G.G.G.G.G.G.G.G.G.G.G.G.",
"G.G.G.G.G.G.G.G.G.G.G.G.G.G.G.G.X O r ] | 3.a.p.r.r.r.r.r.r.r.r.r.p.3.| | | | | | | ( K J 8 @ # G.G.G.G.G.G.G.G.G.G.G.G.G.G.G.G.",
"G.G.G.G.G.G.G.G.G.G.G.G.G.G.G.G.& # u +.@.4.p.r.r.r.r.r.r.r.r.w.9.9.>.| | | | | | | ) K J 0 # & G.G.G.G.G.G.G.G.G.G.G.G.G.G.G.G.",
"G.G.G.G.G.G.G.G.G.G.G.G.G.G.G.G.& X p 7.8.q.r.r.r.r.r.r.r.r.r.9.#.@.O.| | | | | | | ) K J 0 # & G.G.G.G.G.G.G.G.G.G.G.G.G.G.G.G.",
"G.G.G.G.G.G.G.G.G.G.G.G.G.G.G.G.& X g f.g.y.r.r.r.r.r.r.r.p.p.9.@.| | | | | | | | | ` E Y q # & G.G.G.G.G.G.G.G.G.G.G.G.G.G.G.G.",
"G.G.G.G.G.G.G.G.G.G.G.G.G.G.G.G.& X 6 V C Q y.r.r.r.r.r.r.5.3.>.O.| | | | | | [ ) ` S N M 4 # & G.G.G.G.G.G.G.G.G.G.G.G.G.G.G.G.",
"G.G.G.G.G.G.G.G.G.G.G.G.G.G.G.G.G.G.G.* - C f.r.r.r.r.r.r.;.| | | | | | | | | ' I E N = * G.G.G.G.G.G.G.G.G.G.G.G.G.G.G.G.G.G.G.",
"G.G.G.G.G.G.G.G.G.G.G.G.G.G.G.G.G.G.G.& * V i.e.e.e.e.r.r.;.| | | | | | | ] ] _ P Y M * & G.G.G.G.G.G.G.G.G.G.G.G.G.G.G.G.G.G.G.",
"G.G.G.G.G.G.G.G.G.G.G.G.G.G.G.G.G.G.G.G.G.6 f d d s m =.;.@.| | | | _ R T c t y w q 4 G.G.G.G.G.G.G.G.G.G.G.G.G.G.G.G.G.G.G.G.G.",
"G.G.G.G.G.G.G.G.G.G.G.G.G.G.G.G.G.G.G.G.G.X X X X O r |  . . . . .X.` U L 7 @ # # # # G.G.G.G.G.G.G.G.G.G.G.G.G.G.G.G.G.G.G.G.G.",
"G.G.G.G.G.G.G.G.G.G.G.G.G.G.G.G.G.G.G.G.G.& & & & # e G H H H H H H D A Z 5 # & & & & G.G.G.G.G.G.G.G.G.G.G.G.G.G.G.G.G.G.G.G.G.",
"G.G.G.G.G.G.G.G.G.G.G.G.G.G.G.G.G.G.G.G.G.G.G.G.G.G.G., , , , , , , > : : G.G.G.G.G.G.G.G.G.G.G.G.G.G.G.G.G.G.G.G.G.G.G.G.G.G.G.",
"G.G.G.G.G.G.G.G.G.G.G.G.G.G.G.G.G.G.G.G.G.G.G.G.G.G.G.% % % % % % % % % % G.G.G.G.G.G.G.G.G.G.G.G.G.G.G.G.G.G.G.G.G.G.G.G.G.G.G.",
"G.G.G.G.G.G.G.G.G.G.G.G.G.G.G.G.G.G.G.G.G.G.G.G.G.G.G.& & & & & & & & & & G.G.G.G.G.G.G.G.G.G.G.G.G.G.G.G.G.G.G.G.G.G.G.G.G.G.G.",
"G.G.G.G.G.G.G.G.G.G.G.G.G.G.G.G.G.G.G.G.G.G.G.G.G.G.G.G.G.G.G.G.G.G.G.G.G.G.G.G.G.G.G.G.G.G.G.G.G.G.G.G.G.G.G.G.G.G.G.G.G.G.G.G.",
"G.G.G.G.G.G.G.G.G.G.G.G.G.G.G.G.G.G.G.G.G.G.G.G.G.G.G.G.G.G.G.G.G.G.G.G.G.G.G.G.G.G.G.G.G.G.G.G.G.G.G.G.G.G.G.G.G.G.G.G.G.G.G.G.",
"G.G.G.G.G.G.G.G.G.G.G.G.G.G.G.G.G.G.G.G.G.G.G.G.G.G.G.G.G.G.G.G.G.G.G.G.G.G.G.G.G.G.G.G.G.G.G.G.G.G.G.G.G.G.G.G.G.G.G.G.G.G.G.G.",
"G.G.G.G.G.G.G.G.G.G.G.G.G.G.G.G.G.G.G.G.G.G.G.G.G.G.G.G.G.G.G.G.G.G.G.G.G.G.G.G.G.G.G.G.G.G.G.G.G.G.G.G.G.G.G.G.G.G.G.G.G.G.G.G.",
"G.G.G.G.G.G.G.G.G.G.G.G.G.G.G.G.G.G.G.G.G.G.G.G.G.G.G.G.G.G.G.G.G.G.G.G.G.G.G.G.G.G.G.G.G.G.G.G.G.G.G.G.G.G.G.G.G.G.G.G.G.G.G.G.",
"G.G.G.G.G.G.G.G.G.G.G.G.G.G.G.G.G.G.G.G.G.G.G.G.G.G.G.G.G.G.G.G.G.G.G.G.G.G.G.G.G.G.G.G.G.G.G.G.G.G.G.G.G.G.G.G.G.G.G.G.G.G.G.G.",
"G.G.G.G.G.G.G.G.G.G.G.G.G.G.G.G.G.G.G.G.G.G.G.G.G.G.G.G.G.G.G.G.G.G.G.G.G.G.G.G.G.G.G.G.G.G.G.G.G.G.G.G.G.G.G.G.G.G.G.G.G.G.G.G.",
"G.G.G.G.G.G.G.G.G.G.G.G.G.G.G.G.G.G.G.G.G.G.G.G.G.G.G.G.G.G.G.G.G.G.G.G.G.G.G.G.G.G.G.G.G.G.G.G.G.G.G.G.G.G.G.G.G.G.G.G.G.G.G.G.",
"G.G.G.G.G.G.G.G.G.G.G.G.G.G.G.G.G.G.G.G.G.G.G.G.G.G.G.G.G.G.G.G.G.G.G.G.G.G.G.G.G.G.G.G.G.G.G.G.G.G.G.G.G.G.G.G.G.G.G.G.G.G.G.G.",
"G.G.G.G.G.G.G.G.G.G.G.G.G.G.G.G.G.G.G.G.G.G.G.G.G.G.G.G.G.G.G.G.G.G.G.G.G.G.G.G.G.G.G.G.G.G.G.G.G.G.G.G.G.G.G.G.G.G.G.G.G.G.G.G.",
"G.G.G.G.G.G.G.G.G.G.G.G.G.G.G.G.G.G.G.G.G.G.G.G.G.G.G.G.G.G.G.G.G.G.G.G.G.G.G.G.G.G.G.G.G.G.G.G.G.G.G.G.G.G.G.G.G.G.G.G.G.G.G.G.",
"G.G.G.G.G.G.G.G.G.G.G.G.G.G.G.G.G.G.G.G.G.G.G.G.G.G.G.G.G.G.G.G.G.G.G.G.G.G.G.G.G.G.G.G.G.G.G.G.G.G.G.G.G.G.G.G.G.G.G.G.G.G.G.G.",
"G.G.G.G.G.G.G.G.G.G.G.G.G.G.G.G.G.G.G.G.G.G.G.G.G.G.G.G.G.G.G.G.G.G.G.G.G.G.G.G.G.G.G.G.G.G.G.G.G.G.G.G.G.G.G.G.G.G.G.G.G.G.G.G."
};
