/* XPM */
static char *result[] = {
/* columns rows colors chars-per-pixel */
"64 64 211 2 ",
"   c #2D2D2E",
".  c #302E2E",
"X  c #38352E",
"o  c #353434",
"O  c #393636",
"+  c #3C3B3B",
"@  c #383738",
"#  c #2F3232",
"$  c #7B1D1D",
"%  c #423E3D",
"&  c #4A3D3D",
"*  c #453935",
"=  c #553C3C",
"-  c #573232",
";  c #4C282A",
":  c #7C2323",
">  c #722F2F",
",  c #653333",
"<  c #603939",
"1  c #7B3636",
"2  c #753C3C",
"3  c #6C312D",
"4  c #484338",
"5  c #544C3C",
"6  c #5D5339",
"7  c #564929",
"8  c #78582A",
"9  c #6C5C33",
"0  c #6C5E3C",
"q  c #63583C",
"w  c #6F552D",
"e  c #78632A",
"r  c #7E6934",
"t  c #73633A",
"y  c #7A6734",
"u  c #413F41",
"i  c #454343",
"p  c #494645",
"a  c #4E4A45",
"s  c #4C4A4A",
"d  c #474649",
"f  c #504F4F",
"g  c #544742",
"h  c #56524A",
"j  c #514F51",
"k  c #545353",
"l  c #595656",
"z  c #5C5A5B",
"x  c #5A5857",
"c  c #4E5050",
"v  c #635B47",
"b  c #605E5E",
"n  c #635C54",
"m  c #6D6246",
"M  c #6D6456",
"N  c #756B57",
"B  c #7E725D",
"V  c #5F5E61",
"C  c #646363",
"Z  c #686666",
"A  c #6C6A6B",
"S  c #6D6B66",
"D  c #706D6C",
"F  c #746F64",
"G  c #747373",
"H  c #7D7B7B",
"J  c #797676",
"K  c #777062",
"L  c #8A1C1C",
"P  c #851916",
"I  c #991516",
"U  c #951919",
"Y  c #A50E0E",
"T  c #AD0909",
"R  c #AE0609",
"E  c #B10A0A",
"W  c #B20707",
"Q  c #B41B0B",
"!  c #B1100F",
"~  c #A11010",
"^  c #B31212",
"/  c #B81B1B",
"(  c #A9110B",
")  c #80291A",
"_  c #B6230C",
"`  c #BB2D0C",
"'  c #BC310D",
"]  c #812424",
"[  c #862C28",
"{  c #823A38",
"}  c #993133",
"|  c #BC2323",
" . c #AB3636",
".. c #A43838",
"X. c #B83434",
"o. c #AD2121",
"O. c #C1390D",
"+. c #C22E2F",
"@. c #C33232",
"#. c #C5382D",
"$. c #A2751F",
"%. c #8E512A",
"&. c #8A6F27",
"*. c #8C712B",
"=. c #93762A",
"-. c #9C7D2B",
";. c #977929",
":. c #816C36",
">. c #927935",
",. c #BF642A",
"<. c #C34C10",
"1. c #C85B12",
"2. c #C45812",
"3. c #CD6511",
"4. c #CE6E14",
"5. c #D37119",
"6. c #C5642A",
"7. c #867956",
"8. c #927B40",
"9. c #867A64",
"0. c #807E7E",
"q. c #9C813A",
"w. c #A4832B",
"e. c #B48F2C",
"r. c #D88C18",
"t. c #C6991E",
"y. c #CD9E1E",
"u. c #C0941F",
"i. c #DD9B18",
"p. c #DB9718",
"a. c #D4A31E",
"s. c #DBA51D",
"d. c #DEAA1B",
"f. c #CCA01D",
"g. c #E2AB17",
"h. c #E3AD1A",
"j. c #E0A519",
"k. c #C99C22",
"l. c #CFA228",
"z. c #E3AF23",
"x. c #E5B32C",
"c. c #E6B83B",
"v. c #95814E",
"b. c #AF9651",
"n. c #8F816B",
"m. c #938369",
"M. c #9D8C70",
"N. c #A08E6E",
"B. c #A79576",
"V. c #B49E7A",
"C. c #B29C76",
"Z. c #BBA57F",
"A. c #B7A17C",
"S. c #E7BA40",
"D. c #D3B972",
"F. c #EFCE72",
"G. c #838182",
"H. c #898686",
"J. c #8D8B8B",
"K. c #938C89",
"L. c #97928D",
"P. c #949292",
"I. c #999696",
"U. c #9C9B9B",
"Y. c #9D9A92",
"T. c #A39F9F",
"R. c #B0A894",
"E. c #A5A3A3",
"W. c #A9A6A6",
"Q. c #ACAAAA",
"!. c #B2AEAE",
"~. c #B4B3B3",
"^. c #BAB5B5",
"/. c #BDBBBB",
"(. c #D8BC8C",
"). c #C9B48A",
"_. c #C1BDBD",
"`. c #DDC08E",
"'. c #DFC190",
"]. c #E2C491",
"[. c #E9C994",
"{. c #F2D199",
"}. c #FEDB9F",
"|. c #F6D89A",
" X c #F2D28E",
".X c #D8CEB1",
"XX c #FFDDA0",
"oX c #F4DEA2",
"OX c #F5E3B1",
"+X c #C6C3C3",
"@X c #CCCACA",
"#X c #C7C6C7",
"$X c #D1CFCF",
"%X c #D6D3D3",
"&X c #D9D6D6",
"*X c #DDDBDB",
"=X c #DDD9CF",
"-X c #E1DFDF",
";X c #FBF3DF",
":X c #DFE0E2",
">X c #E4E3E3",
",X c #E8E6E6",
"<X c #ECEAEA",
"1X c #F0EFEF",
"2X c #F2EEE4",
"3X c #FFFBED",
"4X c #F5F5F5",
"5X c #F8F7F7",
"6X c #FEFEFE",
"7X c #FFFDF7",
"8X c None",
/* pixels */
"8X8X8X8X8X8X8X8X8X8X8X8X8X8X8X8X8X8X8X8X8X8X8X8X8X8X8X8X8X8X8X8X8X8X8X8X8X8X8X8X8X8X8X8X8X8X8X8X8X8X8X8X8X8X8X8X8X8X8X8X8X8X8X8X",
"8X8X8X8X8X8X8X8X8X8X8X8X8X8X8X8X8X8X8X8X8X8X8X8X8X8X8X8X8X8X8X8X8X8X8X8X8X8X8X8X8X8X8X8X8X8X8X8X8X8X8X8X8X8X8X8X8X8X8X8X8X8X8X8X",
"8X8X8X8X8X8X8X8X8X8X8X8X8X8X8X8X8X8X8X8X8X8X8X8X8X8X8X8X8X8X8X8X8X8X8X8X8X8X8X8X8X8X8X8X8X8X8X8X8X8X8X8X8X8X8X8X8X8X8X8X8X8X8X8X",
"8X8X8X8X8X8X8X8X8X8X8X8X8X8X8X8X8X8X8X8X8X8X8X8X8X8X8X8X8X8X8X8X8X8X8X8X8X8X8X8X8X8X8X8X8X8X8X8X8X8X8X8X8X8X8X8X8X8X8X8X8X8X8X8X",
"8X8X8X8X8X8X8X8X8X8X8X8X8X8X8X8X8X8X8X8X8X8X8X8X8X8X8X8X8X8X8X8X8X8X8X8X8X8X8X8X8X8X8X8X8X8X8X8X8X8X8X8X8X8X8X8X8X8X8X8X8X8X8X8X",
"8X8X8X8X8X8X8X8X8X8X8X8X8X8X8X8X8X8X8X8X8X8X8X8X8X8X8X8X8X8X8X8X8X8X8X8X8X8X8X8X8X8X8X8X8X8X8X8X8X8X8X8X8X8X8X8X8X8X8X8X8X8X8X8X",
"8X8X8X8X8X8X8X8X8X8X8X8X8X8X8X8X8X8X8X8X8X8X8X8X8X8X8X8X8X8X8X8X8X8X8X8X8X8X8X8X8X8X8X8X8X8X8X8X8X8X8X8X8X8X8X8X8X8X8X8X8X8X8X8X",
"8X8X8X8X8X8X8X8X8X8X8X8X8X8X8X8X8X8X8X8X8X8X8X8X8X8X8X8X8X8X8XA D S 8X8X8X8X8X8X8X8X8X8X8X8X8X8X8X8X8X8X8X8X8X8X8X8X8X8X8X8X8X8X",
"8X8X8X8X8X8X8X8X8X8X8X8X8X8X8X8X8X8X8X8X8X8XZ 8X8X8X8X8X8X8XJ @X(.e.n.8X8X8X8X8X8X8XA 8X8X8X8X8X8X8X8X8X8X8X8X8X8X8X8X8X8X8X8X8X",
"8X8X8X8X8X8X8X8X8X8X8X8X8X8X8X8X8X8X8X8X8X8X7.7.8X8X8X8X8X8XG .XF.s.N V 8X8X8X8X8X7.7.8X8X8X8X8X8X8X8X8X8X8X8X8X8X8X8X8X8X8X8X8X",
"8X8X8X8X8X8X8X8X8X8X8X8X8X8X8X8X8X8X8X8X8XK l.-.d 8X8X8X8X8XF k.d.a.m d 8X8X8X8XA v.a.7   8X8X8X8X8X8X8X8X8X8X8X8X8X8X8X8X8X8X8X",
"8X8X8X8X8X8X8X8X8X8X8X8X8X8X8X8X8X8X8X8X8X8Xm 0 8X8X8X8X8X8X8X0 0 0 8X8X8X8X8X8X8Xm 9 8X8X8X8X8X8X8X8X8X8X8X8X8X8X8X8X8X8X8X8X8X",
"8X8X8X8X8X8X8X8X8X8X8X8X8X8X8X8X8X8X8X8X8X8Xs d 8X8X8X8X8X8X8X0.9.r 8X8X8X8X8X8X8Xi + 8X8X8X8X8X8X8X8X8X8X8X8X8X8X8X8X8X8X8X8X8X",
"8X8X8X8X8X8X8X8X8X8X8X8X8X8X8X8X8X8X8X8X8X8Xx k k 8X8X8X8X8Xb >XoXs.7.D 8X8X8X8Xa d + 8X8X8X8X8X8X8X8X8X8X8X8X8X8X8X8X8X8X8X8X8X",
"8X8X8X8X8X8X8X8X8X8X8X8X8X8X8X8X8X8X8X8X8X8Xp J.@XC 8X8Xi J.*X6XoXd.l.w.d 8X8Xa r t i 8X8X8X8X8X8X8X8X8X8X8X8X8X8X8X8X8X8X8X8X8X",
"8X8X8X8X8X8X8X8X8X8X8X8X8X8X8X8X8X8X8X8X8X8Xd U.5XU.H 8X:.R.6XOXF.d.h.e.:.6 G J.q.y 4 8X8X8X8X8X8X8X8X8X8X8X8X8X8X8X8X8X8X8X8X8X",
"8X8X8X8X8X8X8X8X8X8X8X8X8X8X8X8X8X8X8X8X8X8Xp U.6X6X~.h l.F.2Xc.d.h.h.h.s.m J.2Xb.8 o 8X8X8X8X8X8X8X8X8X8X8X8X8X8X8X8X8X8X8X8X8X",
"8X8X8X8X8X8X8X8X8X8X8X8X8X8X8X8X8X8X8X8X8X8XC Q.6X6X4X=Xc.z.S.z.h.h.h.g.z..X.Xb.q.e o 8X8X8X8X8X8X8X8X8X8X8X8X8X8X8X8X8X8X8X8X8X",
"8X8X8X8X8X8X8X8X8X8X8X8X8X8X8X8X8X8X8X8X8X8Xx E.7XOX|. Xx.h.g.d.h.h.h.h.z. XD.;.w.e + 8X8X8X8X8X8X8X8X8X8X8X8X8X8X8X8X8X8X8X8X8X",
"8X8X8X8X8X8X8X8X8X8X8X8X8X8X8X8X8X8X8X8X8X8Xd U.3Xc.h.g.h.h.g.h.h.h.g.g.g.d.t.-.w.r p 8X8X8X8X8X8X8X8X8X8X8X8X8X8X8X8X8X8X8X8X8X",
"8X8X8X8X8X8X8X8X8X8X8X8X8X8X8X8X8X8X8X8X8X8Xd U.3Xc.h.h.h.g.h.h.h.h.h.h.d.e.w.-.w.e o 8X8X8X8X8X8X8X8X8X8X8X8X8X8X8X8X8X8X8X8X8X",
"8X8X8X8X8X8X8X8X8X8X8X8X8X8X8X8X8X8X8X8X8X8Xp A I.>.=.;.;.=.=.-.-.>.;.;.=.e 9 9 9 6 + 8X8X8X8X8X8X8X8X8X8X8X8X8X8X8X8X8X8X8X8X8X",
"8X8X8X8X8X8X8X8X8X8X8X8X8X8X8X8X8X8X8X8X8X8Xd p i + @ + u u p h h l 4 + u + + + d d 4 8X8X8X8X8X8X8X8X8X8X8X8X8X8X8X8X8X8X8X8X8X",
"8X8X8X8X8X8X8X8X8X8X8X8X8X8X8X8X8X8X8X8X8X8Xu n./.k + * u 9.].].[.(.z u O O + f P.H.d 8X8X8X8X8X8X8X8X8X8X8X8X8X8X8X8X8X8X8X8X8X",
"8X8X8X8X8X8X8X8X8X8X8X8X8X8X8X8X8X8X8X8X8X8X% H.%Xz M N.B.).}.}.XX}.A.B.M.N.B d !.U.p 8X8X8X8X8X8X8X8X8X8X8X8X8X8X8X8X8X8X8X8X8X",
"8X8X8X8X8X8X8X8X8X8X8X8X8X8X8X8X8X8X8X8X8X8X+ H.$Xz m.}.[.{.}.}.}.}.XX|.[.}.A.p _.W.p 8X8X8X8X8X8X8X8X8X8X8X8X8X8X8X8X8X8X8X8X8X",
"8X8X8X8X8X8X8X8X8X8X8X8X8X8X8X8X8X8X8X8X8X8X+ H.$Xk m.{.N M.}.}.}.}.}.Z.n ].V.i /.Q.p 8X8X8X8X8X8X8X8X8X8X8X8X8X8X8X8X8X8X8X8X8X",
"8X8X8X8X8X8X8X8X8X8X8X8X8X8X8X8X8X8X8X8Xu i O H.$Xk 9.|.Z.).}.}.}.}.}.`.C.{.C.+ _.Q.s i p p 8X8X8X8X8X8X8X8X8X8X8X8X8X8X8X8X8X8X",
"8X8X8X8X8X8X8X8X8X8X8X8X8X8X8X8X8X8X8Xz V z + G.@Xf B (.`.`.'.|.{.`.`.[.}.XXC.+ ^.~.C C b z 8X8X8X8X8X8X8X8X8X8X8X8X8X8X8X8X8X8X",
"8X8X8X8X8X8X8X8X8X8X8X8X8X8X8X8X8X8Xj +X%X+Xx H !.p * i p a n [.R.h h M.XXXXV.p _.&X$X%X+XQ.C d 8X8X8X8X8X8X8X8X8X8X8X8X8X8X8X8X",
"8X8X8X8X8X8X8X8X8X8X8X8X8X8X8X8X8X8Xl #X-X&XQ.Q.W.s O p J.P.H.0.M.E.E.L.n.m.M i _.-X-X-X$X!.x O 8X8X8X8X8X8X8X8X8X8X8X8X8X8X8X8X",
"8X8X8X8X8X8X8X8X8X8X8X8X8X8X8X8X8X8Xl +X%X%X&X_.I.g f G #X.XI.j G _.%XW.z d + i T.+X$X%X$X!.k o 8X8X8X8X8X8X8X8X8X8X8X8X8X8X8X8X",
"8X8X8X8X8X8X8X8X8X8X8X8X8X8X8X8X8X8Xp W.^.^.^.H.s % G.%X/.H.i 4 i d E.~.Q.l u p s J ^.^.^.!.l o 8X8X8X8X8X8X8X8X8X8X8X8X8X8X8X8X",
"8X8X8X8X8X8X8X8X8X8X8X8X8X8X8X8X8X8X8XZ Z C b k + o j G Z k i B.9.O x C C i % i I.I.D Z C C f 8X8X8X8X8X8X8X8X8X8X8X8X8X8X8X8X8X",
"8X8X8X8X8X8X8X8X8X8X8X8X8X8X8X8X8X8X8X+ + o . o i z Z A S A D ).C.Z Z A A D D G $XQ.i + O O 8X8X8X8X8X8X8X8X8X8X8X8X8X8X8X8X8X8X",
"8X8X8X8X8X8X8X8X8X8X8X8X8X8X8X8X8X8X8X8X8X8X8X8Xx *X6X5X5X<X$XC P.4X5X5X5X5X5X5X,XE.+ 8X8X8X8X8X8X8X8X8X8X8X8X8X8X8X8X8X8X8X8X8X",
"8X8X8X8X8X8X8X8X8X8X8X8X8X8X8X8X8X8X8X8X8X8X8X8Xd $X5X6X1X<X&XC J.<X6X6X6X1X<X1X<XW.O 8X8X8X8X8X8X8X8X8X8X8X8X8X8X8X8X8X8X8X8X8X",
"8X8X8X8X8X8X8X8X8X8X8X8X8X8X8X8X8X8X8X8X8X8X8Xo 4 E.%X4X>X$XQ.x G /.<X4X4X,X$X^.~.H.+ 8X8X8X8X8X8X8X8X8X8X8X8X8X8X8X8X8X8X8X8X8X",
"8X8X8X8X8X8X8X8X8X8X8X8X8X8X8X8X8X8X8X8X8X8XO . O s J.:X:XE.s i d x +X>X*X>XW.d i u p o . 8X8X8X8X8X8X8X8X8X8X8X8X8X8X8X8X8X8X8X",
"8X8X8X8X8X8X8X8X8X8X8X8X8X8X8X8X8X8X8X8X8X+ o , ..U 2 A D J.~.k H +XG.Z Z Z x + $ : p o   8X8X8X8X8X8X8X8X8X8X8X8X8X8X8X8X8X8X8X",
"8X8X8X8X8X8X8X8X8X8X8X8X8X8X8X8X8X8X8X8X8X+ - } +.E ] d G Q.&Xx J.5XP.z O < , , ~ L i + O 8X8X8X8X8X8X8X8X8X8X8X8X8X8X8X8X8X8X8X",
"8X8X8X8X8X8X8X8X8X8X8X8X8X8X8X8X8X8X8X8X8X*  .@.+.E ] l -X4X%Xl H.6X<XE.g  .@.@.^ L & p p 8X8X8X8X8X8X8X8X8X8X8X8X8X8X8X8X8X8X8X",
"8X8X8X8X8X8X8X8X8X8X8X8X8X8X8X8X8X8X8X% + &  .+.^ E : d -X4X%Xz J.6X6X!.p  .@.+.^ Y I I $   8X8X8X8X8X8X8X8X8X8X8X8X8X8X8X8X8X8X",
"8X8X8X8X8X8X8X8X8X8X8X8X8X8X8X8X8X8X8X% = 1 X./ T E $ d -X4X&Xz J.6X6X~.i  .@.@.^ T W W P . 8X8X8X8X8X8X8X8X8X8X8X8X8X8X8X8X8X8X",
"8X8X8X8X8X8X8X8X8X8X8X8X8X8X8X8X8X8X8X@ 1 @.@./ T E ] l >X4X%Xk H.6X6X^.s ..@.@.^ T T E P . 8X8X8X8X8X8X8X8X8X8X8X8X8X8X8X8X8X8X",
"8X8X8X8X8X8X8X8X8X8X8X8X8X8X8X8X8X8X8X+ 1 +./ E T W ] x >X4X%Xx J.6X6X~.% = { @.! T T W L i o   8X8X8X8X8X8X8X8X8X8X8X8X8X8X8X8X",
"8X8X8X8X8X8X8X8X8X8X8X8X8X8X8X8X8X8X8Xo 1 +.E E T T : l >X4X%Xz J.6X6X@XH c 2 @.^ T T E I > * O 8X8X8X8X8X8X8X8X8X8X8X8X8X8X8X8X",
"8X8X8X8X8X8X8X8X8X8X8X8X8X8X8X8X8X8XO * { #.^ T T Y [ C >X4X%Xb P.6X6X4X*XZ 2 X.^ T T T T Y < d 8X8X8X8X8X8X8X8X8X8X8X8X8X8X8X8X",
"8X8X8X8X8X8X8X8X8X8X8X8X8X8X8X8X8X8X& } 6.r.Q T Y , K.>X5X4X%XC P.6X6X6X<XC 3 ^ | | T T R R ; X . 8X8X8X8X8X8X8X8X8X8X8X8X8X8X8X",
"8X8X8X8X8X8X8X8X8X8X8X8X8X8X8X8X8X8X& 6.5.3.2.' Y = I.6X6X4X%Xx J.6X6X6X4XC - ] o.^ T R _ 2.) ; . 8X8X8X8X8X8X8X8X8X8X8X8X8X8X8X",
"8X8X8X8X8X8X8X8X8X8X8X8X8X8X8X8X8X8X4 f.3._ r.1.I = I.6X6X4X%Xf G.6X6X6X4XG d % L ( Q Q <.p.O.L . 8X8X8X8X8X8X8X8X8X8X8X8X8X8X8X",
"8X8X8X8X8X8X8X8X8X8X8X8X8X8X8X8X8X8X5 f.i.r.` [ g i I.6X<X>X%Xl G.<X6X6X6X&XI.u ; 8 p.p.4._ 5.$.        8X8X8X8X8X8X8X8X8X8X8X8X",
"8X8X8X8X8X8X8X8X8X8X8X8X8X8X8X8X8Xp 5 f.h.j.3.%.j P.@X6X4X<X&Xz z I.*X5X6X4X$XP.c w 2.2.1.3.i.t.&.&.w . 8X8X8X8X8X8X8X8X8X8X8X8X",
"8X8X8X8X8X8X8X8X8X8X8X8X8X8X8X8Xi i h a.h.g.a.>.x >X6X6X6X<X+Xl + d !.>X6X6X4X*XZ 3 Q Q <.h.h.h.h.s.;.o 8X8X8X8X8X8X8X8X8X8X8X8X",
"8X8X8X8X8X8X8X8X8X8X8X8X8X8X8X8X+ o 4 l.h.s.0 a l -X6X6X<XQ.l i + o f P.,X,X>X*XC e i.i.s.h.h.h.g.r p   8X8X8X8X8X8X8X8X8X8X8X8X",
"8X8X8X8X8X8X8X8X8X8X8X8X8X8X8X8X8XO O e *.>.E.Q.~.,X4X,XT.A d i 8X8Xi C J.J.J.G.j :.h.h.h.h.w.*.e 6 i 8X8X8X8X8X8X8X8X8X8X8X8X8X",
"8X8X8X8X8X8X8X8X8X8X8X8X8X8X8X8X8X8X+ o @ k @X>X-X#X#X/.x i d 8X8X8Xd p p d + o i t k.k.t.u.q +   i s 8X8X8X8X8X8X8X8X8X8X8X8X8X",
"8X8X8X8X8X8X8X8X8X8X8X8X8X8X8X8X8X8X8X% + @ s f s i i s O o 8X8X8X8X8X8X8X8X8Xo + 4 * 4 4 X O + 8X8X8X8X8X8X8X8X8X8X8X8X8X8X8X8X",
"8X8X8X8X8X8X8X8X8X8X8X8X8X8X8X8X8X8X8X8X8X8X8X8X8X8X8X8X8X8X8X8X8X8X8X8X8X8X8X8X8X8X8X8X8X8X8X8X8X8X8X8X8X8X8X8X8X8X8X8X8X8X8X8X",
"8X8X8X8X8X8X8X8X8X8X8X8X8X8X8X8X8X8X8X8X8X8X8X8X8X8X8X8X8X8X8X8X8X8X8X8X8X8X8X8X8X8X8X8X8X8X8X8X8X8X8X8X8X8X8X8X8X8X8X8X8X8X8X8X",
"8X8X8X8X8X8X8X8X8X8X8X8X8X8X8X8X8X8X8X8X8X8X8X8X8X8X8X8X8X8X8X8X8X8X8X8X8X8X8X8X8X8X8X8X8X8X8X8X8X8X8X8X8X8X8X8X8X8X8X8X8X8X8X8X",
"8X8X8X8X8X8X8X8X8X8X8X8X8X8X8X8X8X8X8X8X8X8X8X8X8X8X8X8X8X8X8X8X8X8X8X8X8X8X8X8X8X8X8X8X8X8X8X8X8X8X8X8X8X8X8X8X8X8X8X8X8X8X8X8X",
"8X8X8X8X8X8X8X8X8X8X8X8X8X8X8X8X8X8X8X8X8X8X8X8X8X8X8X8X8X8X8X8X8X8X8X8X8X8X8X8X8X8X8X8X8X8X8X8X8X8X8X8X8X8X8X8X8X8X8X8X8X8X8X8X",
"8X8X8X8X8X8X8X8X8X8X8X8X8X8X8X8X8X8X8X8X8X8X8X8X8X8X8X8X8X8X8X8X8X8X8X8X8X8X8X8X8X8X8X8X8X8X8X8X8X8X8X8X8X8X8X8X8X8X8X8X8X8X8X8X"
};
