/* XPM */
static char *result[] = {
/* columns rows colors chars-per-pixel */
"64 64 33 1 ",
"  c #DBCDBC",
". c #E4CCB4",
"X c #E9CEB5",
"o c #E4CEBB",
"O c #E8CFB9",
"+ c #ECD1B5",
"@ c #E6D3BD",
"# c #EBD4BC",
"$ c #EED8BE",
"% c #F1D6BC",
"& c #F1D9BE",
"* c #DFD2C4",
"= c #E5D5C2",
"- c #EBD6C2",
"; c #E6D9C6",
": c #EDDAC5",
"> c #E9D7C8",
", c #E6DACA",
"< c #EDDDCA",
"1 c #F0D7C1",
"2 c #F1DDC5",
"3 c #F1DECA",
"4 c #ECDED0",
"5 c #F0DFD1",
"6 c #EEE0CD",
"7 c #F3E0C6",
"8 c #F2E1CC",
"9 c #EEE2D2",
"0 c #EFE6DA",
"q c #F2E4D2",
"w c #F4E8D5",
"e c #F2E7D9",
"r c #F4E9DA",
/* pixels */
"2876w@:<8,=:837366:q&7qq8wq8q22w2>w3q3333w7-,qe33q355qqq4<#-3833",
":78q<-<688q<23o-=>88-7#232:3q8333>433<34=q<,qqq-2333--2w353-1333",
":=96376<882287;--w::7723e4>35w,<5<353358-3-<7332353553#382q<@<3q",
"6,;=:84<88--8:,qqe<:>788q3:33q<<33339<38q<<:8q33q3qw<33>-55<>-3w",
"w9,33-6<:<,<<3<<881-.#3,=-<-8www32284,:33-<9q3q8322222wq3q5<<3>4",
"6e3qq<9>8q-<wq123%&8-#:<>9w<2qwwwrq83<38@*4q833<1322<155388-2553",
"<q8344>79><<q,<q6-2<#7we2,8-396<qq88q83q<<q383qq338q533333<5-3qq",
"0,:89<=:678qqq978887,:re<<9>9<3:q4283q62<93%3qe83qqw3w3-<4qq5><q",
"w2$6-,<;<86q3:<2-qq326534<<qq33<3q33o2954<6238w75233rq3#<44<<w,3",
"76;,6<67#2qw8$683qw<6::3e<@:q3q89qq<Oq<<q-:q23:363%8w38535<<q43%",
"32,,#$68::6:-=8qqq83::=237:<<q89<3<<$2<:,7873w2qq<<373q33<qerq82",
"8<622:8,>706,<883382:8:-38,9wee8-<:183<:6788-,78q9q71::q3q44q238",
"->$$-&76,0w8wqqqo<,:<28q38<q<8q>2<,q879<:#>-$-2<=qw535,38>q88<@2",
"-6968868weqwq-5q:383<2:2&<q27-:<:%7<O23q272+72,w<qw:<qq<--:13213",
"76<#8qq8<we<4*4qqq987,=@3qqq:>:>:-<6%832-=2-&8873853<-3q<,28885q",
":6-$223--#35<<<33q,988-3#333-:::82:73<8-<=>&77w6<2w35:3q-3381188",
"6o3-287-233q53w8832qq33q8qw7>89<83@7-3<@<<,=$=4qq1:37<>8:qeq12:3",
"6%+:868:3wqq4qqq882@<q8878::886;33:w3q<8qq33#*,q388<288<83e32q83",
"7-$68>: 35583q32182XXqq821$6qq867q3--<<q3q>33o-3-6qq>qw<:2%5::93",
"<;677976233823<%238222q8-::7<677qq:@<82733<8qo3><:-#-9q6<%2<w61q",
"<<<8382qw6:8::67#-X#3<3q77:q,::<8q>6q6>-332<qere<2:<3q<5q32-3<33",
",<<8<>:869<28r,>33-33<:#2q:qq88q-:<8w932q2>53rr88,qw3w<13qq3#:<3",
"7,w,-27<86669w<><8qq>83:2-@<872q8<23q72:9:<q35<23q5q<8313ww<2:13",
"22<7>>:<>989688<83:323w<<-347q388<3272878:6q133333<3383q3w7#3q32",
"232<q<2q<<:-:,q93<<2##<>-:8873qq838172333<:7q7q<33258q3<3223133#",
"::q38833>@-=@@882<<87$<67<#6e<,8qqw-<2,-7@#>22<8qw33qq3<q128q3%<",
"8qw9<<,:333<:78886w2:<#&#<@;q:<q88q3-87:8:3:X#<<35e32q3-3312333q",
"q<qq6767%8:=:736<7<87=#23<<88:7831282<w8118,<35-12=323<<8322233q",
"8-73996:o2:$q8272%-3q:878:79q633e7#73767q77268w7383q2823w82231&8",
"&388e<66<-22q818q#:888827:7>3<q3><<<-238q=<q78q88w5-2q32338<>-%8",
"-6<<:7:83::382&7qwq3<qw<996,<:<,#7<793e89,6q6<<772%:5wqe4<qw:-3w",
"q6,:9698<---2<::88<qw69,<<<><q>#3<#2-13wq669>w88:-233q3<33<3<,:8",
"qq<9q,,8<:2<<8<-:82<<89<,<978q3-:::-#-283,-9w87q888688:%8829<,,8",
"<84<688q987<638=$7:=<6<9w972&-qq893<<:7-9e6=788&882qw88276<<9=:8",
"28<-qr9992:6<27:=:q6<8,9q98q2-wqq3<87<:<eeq=7862<37q>:87766,9=:7",
"28<-9wwq878<q88q:#e966<<33:7:<q88qq8q778q9976:6882q63q:&7669e773",
"<9w,qw08:@8wq8q873q<1<<9277974q2979q97836<q::27q2q3<--21<945q3:%",
"828-,6,<<@18qq82<32=<-:q:27q3388<:>$-8q9$:7<33q828:O-1388q<<33%%",
"<22&<>2#-37:9<622:1=<<qq36ww8q3w233#<<,w,2877<qqq<q3:2--qq<-3q82",
"-&:7<<<67<<$7-878<77,53#3q<<q528::,1<q<q<:733:<3<<83--#2<4:55qq%",
"<3:32q877:778<q88863:>-:328q2w2%69,8-772:67<<w<:@@872:728wqqqq31",
"3328:883&882266632<6:-38q2#e3q82288q8o#6<==:787<28<:@9q68<<8338#",
"&<3<28228q88#-8<:6<<3227236733qq87w7q#-qq$778q8#@886:7q7q,:qw8:2",
"qq3:q88q7,822269<=:7q-@:@8q82<qq828qq3836769w88#82<q8::328q8e437",
"877.:788:@-$:39<:#7233;=<w8:-#87888w827#28<68:6623,3222#3q<:qq<<",
"22::27:-:>789q8<$$:6<89-#$7776:-28888281776q87w:<-<828--q3333q3q",
":7::9ww::87,483279q8qq3X.%&-8w8928778<&2877887w7<<9q2&%3eq333332",
"87#-<<788w286qq796$-<<8-##19w77w8888w8-88&6:688698w821-8q3-<w<2:",
"82$#888qq8%:wq78<87:6q8837:88<38q9q82$<88:88886q8q8834333w9w6778",
"83:q77qq7:%#77&2:;68q723-:<<<;,8w97<-:7<67878882886q<3q88878,:<w",
"<-233::-+-227>7::$-$:87,-:286386688#>:7$76878882<7$<333qq79-<@@8",
"q<7:,67-X7887<787+$<9,872<<q7888:w8:72:@<88w868$@w9>2328q8q:>:32",
"887<<:763<86=<977<:<>8q87<272266-68:6::66w376q78:8e8w3q8237226>:",
"q286<3:66:8<#68-q2#7272:88#+8q977:=;697=7q,$<:7qq8::8ew3q2&3&2:q",
"-18-->q8-$<38w8-866w2%27<q>-w7788:<6878q6qw--:7897#32q72qw2q8788",
"+-2<1972:8722=822<3&%228q@q:8$-$:6<786>7+::37q6:6w><2q8:2q7q7227",
"<777771,w6$::$q7--72::,78,9q7-:$$-=#-7:2:2877q38:qq83-3q28782228",
"67826639677;67w><<877:8<8678<<:&$+<2&77<=:8<6w7wq<8<3-33<78:2388",
"7<7--w9<:8676799<->7<::6873::7<8q3<7126w7766w8:8qwq-##<:>69q<222",
"<8:+>,;:687;8q0866:<<:66672786wq,# $77:w7$666666w3w8O2q276,7:811",
"::&$2;->;,+<r876-766<9<6@:276:66$%>:88<q776w887-<8w:2888<<99<-81",
"2-7%2,,;7$@9w87::227q-49:#:3<6qw$7877362;@;86:6618828882<:<e8-82",
":88$-4ww:6,@78;+#+#:3<699<2287<32$8:78>$6@@@,2:6187<888w3@<ewq@&",
"$886,78w--:6687882-<90:60:6q78=#8@9:86<<8;$:7$&213888789-#8906o#"
};
