/* XPM */
static char *result[] = {
/* columns rows colors chars-per-pixel */
"64 64 160 2 ",
"   c #1A1913",
".  c #1C1B18",
"X  c #221E13",
"o  c #352B0D",
"O  c #3F330D",
"+  c #23211B",
"@  c #362F15",
"#  c #332E1D",
"$  c #3F3617",
"%  c #3F371A",
"&  c #2D2A26",
"*  c #2D2A28",
"=  c #342F22",
"-  c #353124",
";  c #3F3A26",
":  c #34312D",
">  c #3B3733",
",  c #3C3835",
"<  c #4A3D19",
"1  c #413C34",
"2  c #423E3A",
"3  c #6C540B",
"4  c #6C580D",
"5  c #70560B",
"6  c #715B0B",
"7  c #6C5914",
"8  c #6D5B1C",
"9  c #715F1D",
"0  c #72601E",
"q  c #4B4122",
"w  c #4B4532",
"e  c #6F5F22",
"r  c #735D22",
"t  c #756222",
"y  c #6D6033",
"u  c #756531",
"i  c #72673D",
"p  c #7C6A39",
"a  c #665E56",
"s  c #665F59",
"d  c #6F6541",
"f  c #796D48",
"g  c #7E7146",
"h  c #676057",
"j  c #6A6256",
"k  c #676058",
"l  c #6B645A",
"z  c #70665D",
"x  c #7D7258",
"c  c #6F6860",
"v  c #726B61",
"b  c #7F766C",
"n  c #99750D",
"m  c #A47D06",
"M  c #877B69",
"N  c #81796E",
"B  c #A58306",
"V  c #BE8F07",
"C  c #A58611",
"Z  c #A58619",
"A  c #9D8429",
"S  c #A58A26",
"D  c #A98D26",
"F  c #CA9703",
"G  c #C79B05",
"H  c #CFA303",
"J  c #D7A502",
"K  c #DEA602",
"L  c #E5AB01",
"P  c #ECB601",
"I  c #EBB902",
"U  c #EBBB0A",
"Y  c #F3B600",
"T  c #F4BB01",
"R  c #FABE00",
"E  c #ECBD18",
"W  c #C2A22D",
"Q  c #CFAC2C",
"!  c #DAB52E",
"~  c #CFAE39",
"^  c #E2BE2F",
"/  c #FDC500",
"(  c #FFC801",
")  c #FFCA0B",
"_  c #F5C316",
"`  c #FFCC14",
"'  c #FFCE1D",
"]  c #EBC127",
"[  c #E9C12E",
"{  c #FFCF22",
"}  c #FFD026",
"|  c #FFD12C",
" . c #EBC230",
".. c #F5CD32",
"X. c #FFD333",
"o. c #9D8E59",
"O. c #A99856",
"+. c #8F8268",
"@. c #90826A",
"#. c #918575",
"$. c #958B7A",
"%. c #9B8D7E",
"&. c #DABA43",
"*. c #CFB864",
"=. c #C2B06A",
"-. c #CFBA6F",
";. c #F2CF4D",
":. c #FED647",
">. c #FFDA53",
",. c #EBCE64",
"<. c #FFDD63",
"1. c #E2CD79",
"2. c #E9D078",
"3. c #F5DC77",
"4. c #FBDF74",
"5. c #9A8E82",
"6. c #9C9185",
"7. c #9F9588",
"8. c #A09485",
"9. c #A19688",
"0. c #BBAD9B",
"q. c #BFB09E",
"w. c #BDB1A2",
"e. c #C1B09E",
"r. c #C3B4A4",
"t. c #C5B8A8",
"y. c #CEBEAC",
"u. c #D2BFAD",
"i. c #FBE281",
"p. c #CFC0AE",
"a. c #D0C0AC",
"s. c #D4C5B3",
"d. c #D5C8B7",
"f. c #DCCAB6",
"g. c #D7CAB9",
"h. c #DDCDBB",
"j. c #DED1BF",
"k. c #E2CEB9",
"l. c #E5D3BE",
"z. c #ECD5BD",
"x. c #EED8BF",
"c. c #F0D7BE",
"v. c #F0D8BF",
"b. c #DECFC0",
"n. c #DFD1C0",
"m. c #E5D5C2",
"M. c #EBD7C2",
"N. c #E7D9C6",
"B. c #EDDAC5",
"V. c #E7DAC9",
"C. c #EDDDCA",
"Z. c #F1DDC5",
"A. c #F0DECA",
"S. c #EFDFD0",
"D. c #F0DFD0",
"F. c #EEE0CE",
"G. c #F2E0C7",
"H. c #F1E1CC",
"J. c #EEE2D2",
"K. c #F2E4D1",
/* pixels */
"Z.H.G.H.K.M.B.C.A.V.N.B.A.A.Z.Z.C.C.C.D.Z.Z.H.H.H.K.K.H.K.Z.A.K.Z.B.D.A.K.A.A.A.A.K.Z.B.V.K.K.A.Z.K.A.D.D.D.D.D.D.C.M.M.B.A.A.A.",
"B.Z.H.H.C.B.V.H.H.H.H.C.B.A.m.M.M.V.A.A.Z.Z.B.Z.H.Z.Z.A.K.H.A.A.A.V.S.A.A.C.A.C.V.K.C.V.K.K.K.Z.Z.A.A.A.B.B.Z.K.A.D.A.B.M.A.A.A.",
"B.N.F.F.A.A.C.C.H.H.Z.Z.H.Z.M.M.B.K.B.B.Z.Z.Z.A.K.S.B.A.J.K.C.H.D.C.A.D.A.A.D.D.B.B.B.C.A.A.A.A.A.A.D.D.D.A.M.A.A.Z.D.B.M.M.D.D.",
"F.V.N.N.B.C.S.C.A.A.M.B.A.B.V.J.K.K.C.B.M.Z.A.H.S.A.B.C.H.K.C.H.Z.A.A.A.S.C.A.A.D.C.C.B.A.H.A.A.D.A.K.D.A.Z.A.Z.B.D.D.C.B.Z.D.K.",
"K.J.V.C.A.B.C.C.C.C.V.C.C.A.C.C.A.A.Z.M.k.x.C.C.N.M.C.B.A.K.K.K.H.H.Z.A.S.C.V.A.A.V.B.S.K.A.K.H.A.Z.Z.Z.Z.A.D.D.A.D.D.C.Z.A.C.S.",
"F.J.F.H.H.C.S.B.A.C.B.C.K.H.Z.A.Z.Z.c.Z.M.x.V.J.V.S.K.C.A.K.K.K.K.K.K.H.C.C.A.A.m.N.S.D.H.A.A.A.Z.Z.A.Z.Z.Z.D.D.A.A.A.B.B.D.S.A.",
"F.J.F.H.J.S.V.C.F.B.C.C.J.C.C.H.C.B.Z.B.M.Z.K.K.C.C.C.B.A.J.C.C.K.K.H.H.K.H.A.A.B.C.A.A.A.A.K.H.A.A.H.K.D.A.D.A.A.A.C.D.B.C.D.D.",
"J.C.B.F.C.C.N.B.F.A.H.K.J.H.F.A.A.H.A.A.B.Z.K.K.C.C.S.V.D.C.A.C.K.H.A.A.A.K.A.A.A.D.A.Z.A.K.K.H.A.D.K.K.A.K.Z.Z.C.S.D.D.S.C.A.D.",
"K.B.x.F.B.V.V.B.C.A.H.K.A.B.C.Z.B.K.K.A.Z.C.D.A.C.C.C.J.K.A.H.C.A.K.A.B.l.Z.F.S.C.C.C.Z.A.H.K.H.D.Z.A.D.K.K.Z.M.C.S.S.C.C.J.C.C.",
"G.F.B.V.C.C.F.B.M.Z.K.K.C.B.C.H.H.K.K.A.C.C.B.H.K.C.M.C.H.H.H.H.J.K.K.B.z.H.C.C.J.B.B.H.A.A.B.H.A.Z.Z.A.K.A.D.D.A.S.C.D.D.S.A.M.",
"H.B.V.V.x.M.F.H.B.Z.C.C.M.M.H.H.H.K.H.A.B.B.M.B.A.A.V.C.C.K.F.J.C.A.C.B.B.Z.V.B.C.Z.H.H.C.H.H.H.K.A.Z.Z.H.A.D.A.A.C.D.J.K.K.A.A.",
"H.C.B.Z.B.B.C.C.V.A.K.F.V.F.H.H.C.A.A.A.B.A.B.B.A.C.C.J.K.K.J.F.B.C.B.Z.Z.H.C.B.C.Z.A.A.B.B.G.H.D.K.K.A.Z.Z.B.D.A.D.S.S.K.Z.A.A.",
"M.B.M.B.B.Z.Z.C.J.K.K.K.K.H.K.J.M.B.C.B.C.Z.A.H.A.A.N.n.h.j.h.d.f.g.s.k.j.x.F.F.B.B.B.M.x.B.Z.F.V.D.K.D.A.S.V.A.A.B.D.A.H.Z.M.Z.",
"B.C.C.F.A.A.A.H.J.K.K.K.K.C.J.H.B.C.F.C.C.B.B.B.Z.M.w.v h a h a a a a a l 0.B.H.Z.Z.x.z.Z.B.V.H.A.K.K.C.A.D.D.A.B.B.B.Z.A.Z.M.A.",
"Z.F.B.B.A.H.K.H.J.K.J.S.C.N.C.K.H.K.J.H.G.B.l.l.B.m.6.* . . . . . . .   & 6.l.M.z.l.M.B.v.G.H.H.A.A.K.A.C.B.A.D.C.V.Z.A.A.A.D.K.",
"B.C.M.x.Z.A.C.M.M.B.A.S.C.C.C.C.F.K.C.F.V.s.w.r.q.w.#.w ; $ O $ < o < o < @.q.e.w.w.p.z.Z.Z.H.H.C.Z.K.A.D.B.A.D.B.A.A.Z.Z.Z.A.A.",
"G.l.B.B.Z.G.Z.B.Z.A.A.K.S.A.K.A.A.A.Z.A.m.N 2 , , 2 f =.*.Q H H H H H H G 0 , > , 1 b f.M.N.S.J.K.Z.Z.Z.A.B.C.A.C.K.K.K.B.Z.Z.A.",
"C.x.z.B.Z.F.B.B.A.K.K.K.S.K.K.K.H.A.M.k.s.l X .   + i 2.3.X./ / / / / / I 6 X     + a u.k.b.N.J.A.A.A.C.A.A.A.C.A.A.K.A.Z.D.A.A.",
"G.M.B.G.H.V.B.m.A.A.H.H.A.K.A.Z.Z.Z.y.%.#.x d y 7 4 S ;.>.' ) ( / ( ( ( / B 6 4 7 t M +.6.r.N.B.B.C.K.C.C.S.K.C.B.Z.M.A.C.Z.D.A.",
"V.B.B.H.G.F.G.C.B.A.A.H.Z.C.C.M.Z.M.8.: : o.1.,.E I T ) ) ( ( ( ( ( ( ( / I I U ] ^ A = : 5.m.S.B.B.B.B.B.J.K.C.C.Z.Z.Z.K.A.Z.D.",
"V.B.C.H.A.C.Z.K.K.F.B.H.C.C.C.B.f.u.#.= - O.3.<.` ( ( ( ( ( ( ( ( ( ( ( ( ( ) ) | ..S @ = 5.g.n.V.B.B.Z.A.K.A.D.D.A.Z.B.A.Z.A.A.",
"V.C.C.H.C.B.B.H.F.F.F.Z.A.K.V.y.N j x o.O.&.X.| ) ( ( ( ( ( ( ( ( ( ( ( ( ` ' { | X.! D A g c b s.C.D.K.A.K.A.M.A.K.D.Z.M.B.B.A.",
"H.C.K.V.B.B.Z.C.A.F.C.F.J.K.V.r.2 + d 1.3...) / ( ( ( ( ( ( ( ( ( ( ( ( / { X.X.X.X.X...^ r X 2 t.S.D.D.C.A.A.Z.A.K.K.Z.Z.B.B.A.",
"Z.Z.A.Z.V.B.B.C.V.J.H.F.F.H.C.r., . y ,.<.| ) ( ( ( ( ( ( ( ( ( ( ( ( ) ) { X.X.X.X.X.X. .8 . , r.B.C.A.D.H.A.K.K.K.A.M.A.A.A.B.",
"Z.A.Z.C.F.C.Z.H.C.B.B.B.B.V.C.t.,   7 E ` ) ( ( ( ( ( ( ( ( ( ( ( ( ` } } | X.X.X.X.X.X. .e . , t.B.A.A.A.K.D.A.A.Z.Z.Z.Z.A.Z.Z.",
"B.B.H.H.H.H.A.C.B.m.M.m.l.l.m.w.1 X 6 I ( ( ( ( ( ( ( ( ( ( ( ( ( ( ` | X.X.X.X.X.X.X.X. .9 X 1 r.N.V.A.K.D.A.A.A.Z.Z.D.D.Z.M.Z.",
"H.K.K.K.C.C.V.B.Z.Z.A.B.m.0.5.#.f i S U ( ( ( ( ( ( ( ( ( ( ( / ` ` } | X.X.X.X.X.X.X.X. .Z 5 r M 6.w.V.Z.K.A.B.A.Z.Z.Z.A.A.Z.D.",
"H.C.K.K.F.G.H.Z.M.A.V.M.g.c * w =.2.;.) ( ( ( ( ( ( ( ( ( ( ( ) } | | X.X.X.X.X.X.X.X.X.| E L V < * c k.Z.A.Z.A.A.A.Z.Z.Z.A.A.D.",
"A.B.G.A.K.F.C.B.M.Z.B.B.h.s . ; -.i.>.) ( ( ( ( ( ( ( ( ( ( / ) X.X.X.X.X.X.X.X.X.X.X.X.| E Y F < . a k.A.A.Z.A.K.A.Z.Z.Z.Z.Z.Z.",
"B.A.H.H.K.C.F.F.B.M.Z.B.b.s . ; -.i.>.) ( ( ( ( ( ( ( ( ( ` ' { X.X.X.X.X.X.X.X.X.X.{ ` ` R Y F o   s f.Z.K.A.A.A.A.A.B.Z.M.Z.A.",
"B.C.C.C.C.B.C.H.Z.B.B.Z.k.a . < -.i.>.) ( ( ( ( ( ( ( ( / ' X.X.X.X.X.X.X.X.X.X.X.X.' ) / R Y F O . a f.D.K.K.D.D.A.D.D.B.B.Z.D.",
"H.F.V.B.J.C.F.H.C.B.M.B.f.s . 1 *.4.:.) ( ( ( ( ( ( ( ) ` { X.X.X.X.X.X.X.X.X.X.| { ` ) ( R Y F O . a f.A.K.D.A.A.A.D.A.D.B.Z.A.",
"K.K.C.J.J.C.C.F.B.B.B.B.h.k . % ~ X.| ( ( ( ( ( ( ( ) } | X.X.X.X.X.X.X.X.X.X.X.` ) / ( ( R Y F < . a h.D.A.Z.Z.Z.A.C.F.C.V.V.F.",
"C.H.C.C.F.F.F.K.J.H.G.F.h.h . $ Q X.' ) ( ( ( ( ( ( ` X.X.X.X.X.X.X.X.X.X.X.X.} ) ( ( ( ( R R F o   a l.D.D.A.Z.A.A.C.C.C.N.B.F.",
"C.H.C.B.J.K.J.J.F.G.M.F.h.h . $ Q X.' ( ( ( ( ( ` ` ' X.X.X.X.X.X.X.X.X.X.} ' ' / ( ( ( ( R Y F O . k j.A.B.Z.Z.A.H.A.C.F.N.B.Z.",
"Z.H.C.C.J.K.K.K.F.G.F.F.j.k . $ Q X.} ( ( ( ( ) } X.X.X.X.X.X.X.X.X.X.X.| ` ) ( ( ( ( ( ( R Y F O . k h.A.A.Z.Z.Z.H.K.S.K.G.Z.A.",
"C.H.K.C.H.K.K.H.B.z.F.K.n.v * q W [ ] ( ( ( ) ) } X.X.X.X.X.X.X.X.X.X.X.| ` ( ( ( ( / ( / P L V < & c f.B.B.Z.Z.C.S.S.D.J.A.B.c.",
"A.Z.C.B.V.F.J.V.B.M.B.F.V.w.7.@.u e C / ( ` ' } | X.X.X.X.X.X.X.X.X.} ` ` ( ( ( ( ( / R P m 3 r @.5.0.k.M.M.Z.A.A.D.C.C.A.A.Z.c.",
"B.Z.B.B.B.V.B.M.M.B.Z.B.F.N.l.e.>   4 / ( ' X.X.X.X.X.X.X.X.X.X.X.X.' ) ( ( ( ( ( / R R L 5 X 1 w.m.V.Z.M.Z.M.M.K.K.C.B.A.K.Z.Z.",
"B.Z.B.Z.C.C.C.G.G.F.G.v.H.B.B.r.,   4 U ) } X.X.X.X.X.X.X.X.X.X.} } ' ( ( ( ( ( ( ( / Y L 3   , w.V.A.A.M.M.M.Z.C.S.A.A.D.K.A.c.",
"B.Z.B.A.A.H.H.Z.Z.B.G.G.Z.C.F.t.,   8 ] } X.X.X.X.X.X.X.X.X.X.| ` ) ( ( ( ( ( ( ( / / Y L 3   , 0.m.A.Z.Z.Z.A.A.A.K.K.K.K.K.A.M.",
"Z.A.Z.A.B.H.H.A.Z.H.G.G.Z.A.V.t.2 + e ^ ....X.X.X.X.X.X.X.X.X.} ) ( ( ( ( ( ( ( ( ( R Y K 3 X 2 r.B.C.C.M.H.H.A.K.C.C.A.A.A.A.c.",
"Z.A.A.C.G.H.Z.Z.H.H.H.H.x.B.C.s.b k g A D ^ ..X.X.X.X.X.X.} ' ` ) ( ( ( ( ( ( ( / R J m n p j b u.Z.A.C.Z.A.A.A.A.C.V.K.K.A.Z.Z.",
"H.H.A.B.H.H.H.H.G.V.Z.Z.Z.B.C.C.j.p.#.# @ D ..X.X.X.X.X.X.` ) ( ( ( ( ( ( ( / / R Y m o @ $.s.f.B.Z.C.D.Z.Z.M.Z.A.A.K.H.K.C.A.Z.",
"H.G.v.l.Z.H.H.Z.B.M.M.x.B.F.F.F.x.k.7.: - A ^ [ [  .....| ) ( ( ( ( ( ( / T I P L K n # : 8.N.C.Z.C.V.A.Z.Z.Z.Z.A.D.C.C.K.D.A.C.",
"Z.G.B.B.Z.Z.B.B.B.B.Z.F.F.H.H.B.x.l.a.7.$.g e 8 8 0 Z _ ` ) ( / ( ( ( R P m 6 3 3 3 p $.9.u.F.C.C.B.C.H.Z.Z.M.M.D.A.A.A.K.K.A.K.",
"B.G.B.B.H.H.K.Z.C.H.G.V.F.H.F.G.G.F.F.n.g.l +     X 4 / / / / / / / / Y L 3 X     X l d.N.Z.H.H.C.C.F.H.Z.Z.M.A.K.K.A.A.A.A.Z.Z.",
"G.Z.B.M.C.C.H.H.H.H.G.F.F.H.F.G.F.F.x.G.j.N 2 > > , e V H H H H H H H G V r 1 > , 2 N k.C.H.H.H.K.H.K.H.Z.Z.M.A.K.A.B.C.K.A.A.B.",
"H.Z.x.B.H.H.H.H.H.H.c.B.H.H.H.H.F.G.B.B.B.g.t.r.r.0.+.< O < O O O O O O < +.q.w.r.r.s.Z.H.H.H.H.H.H.H.H.A.C.A.A.A.K.K.K.C.H.Z.H.",
"G.Z.B.H.Z.H.H.H.Z.Z.c.x.G.G.v.Z.B.M.F.G.F.G.B.B.m.l.%.& . .     . . . . & %.l.G.G.B.H.G.H.H.H.Z.H.H.F.K.A.A.D.H.H.H.H.A.V.B.H.H.",
"C.B.Z.Z.A.B.Z.M.z.x.Z.Z.Z.B.Z.Z.B.x.B.B.B.F.G.B.B.l.0.v h h h h h h h h z 0.M.M.G.F.H.H.H.H.H.Z.B.H.B.B.A.A.H.H.K.H.H.B.B.M.x.C.",
"H.C.Z.B.V.C.Z.B.z.Z.Z.H.G.C.G.G.Z.z.x.B.F.V.H.G.Z.B.N.j.h.h.j.h.g.j.j.f.h.l.M.z.B.H.H.H.H.H.G.B.M.H.F.C.A.Z.H.H.H.H.H.Z.V.B.B.Z.",
"H.H.A.A.B.C.Z.C.C.B.H.F.N.B.F.G.H.B.B.C.B.H.H.H.G.B.B.Z.Z.G.F.F.B.F.F.G.B.B.B.F.F.K.H.G.F.H.H.H.C.H.K.H.K.H.H.H.Z.Z.G.Z.B.B.B.B.",
"H.Z.A.C.B.Z.C.C.F.B.G.C.M.F.F.B.H.Z.x.Z.Z.Z.Z.Z.H.H.z.x.H.H.F.G.G.M.N.N.F.F.F.M.G.F.B.B.B.B.G.H.H.H.B.B.H.K.K.H.H.Z.Z.A.Z.Z.B.K.",
"B.Z.Z.B.M.C.D.A.B.x.B.H.H.H.H.B.A.C.A.H.Z.v.Z.Z.F.F.B.B.H.G.G.Z.G.M.M.F.H.G.H.H.F.J.F.B.B.B.G.H.H.H.x.Z.H.K.H.Z.K.K.G.H.H.Z.A.H.",
"z.M.Z.B.B.C.A.Z.B.C.Z.G.B.M.A.Z.A.B.Z.Z.x.Z.Z.H.F.M.F.B.H.B.B.x.B.F.B.G.G.F.B.B.x.B.B.G.G.H.F.F.F.K.V.C.A.H.H.Z.H.H.G.H.G.Z.Z.H.",
"B.Z.Z.G.G.Z.B.V.H.H.M.G.M.M.F.G.B.B.Z.Z.B.B.V.G.F.B.F.H.G.M.B.x.x.M.N.z.M.Z.B.Z.M.G.G.G.G.H.H.G.A.K.K.A.A.B.A.H.Z.G.H.H.Z.Z.Z.H.",
"H.G.H.Z.C.F.F.F.F.H.G.N.F.G.K.V.V.C.A.Z.Z.Z.H.C.F.F.H.H.F.B.B.v.x.x.B.B.x.G.G.B.N.x.F.B.F.K.G.H.K.D.A.A.Z.M.A.A.A.H.H.C.Z.Z.G.H.",
"G.B.G.M.M.H.F.F.B.H.G.G.F.G.K.F.C.B.B.G.C.B.B.C.G.G.G.B.B.G.F.H.F.V.B.G.Z.Z.F.K.G.G.F.F.K.H.G.F.K.K.K.M.z.M.Z.B.B.C.K.H.B.Z.Z.Z.",
"C.H.B.z.B.V.V.B.F.G.B.B.F.K.K.F.C.C.B.B.C.B.A.F.F.G.B.G.G.F.K.F.B.z.m.x.Z.G.G.K.G.Z.F.F.F.F.F.F.K.H.K.Z.l.Z.H.Z.Z.A.C.C.A.Z.Z.v.",
"B.B.v.v.G.N.N.B.N.N.z.F.K.H.G.F.B.Z.C.F.F.F.F.F.x.B.B.G.F.B.H.F.x.x.M.B.G.H.B.H.G.B.F.H.H.A.Z.B.A.A.K.A.Z.A.H.H.C.C.J.J.B.B.A.M.",
"B.B.Z.v.M.V.N.N.G.x.l.F.K.K.G.B.x.Z.Z.Z.F.B.V.F.B.z.B.C.B.F.H.K.x.Z.H.G.G.A.C.G.B.z.N.F.C.Z.C.C.Z.A.H.Z.G.H.H.Z.B.V.S.K.H.B.A.Z.",
"B.G.G.x.M.F.K.J.G.N.N.M.G.H.M.x.z.z.z.B.H.C.F.F.F.C.B.G.H.G.C.Z.Z.x.F.B.Z.G.V.B.B.m.l.z.V.Z.Z.A.Z.A.Z.A.H.H.H.K.C.M.C.K.K.A.M.c.",
"x.H.H.C.F.G.H.K.B.M.B.B.F.F.G.G.A.Z.M.C.J.J.V.J.J.B.F.H.G.F.M.B.B.M.F.B.H.F.C.C.F.N.z.B.Z.Z.c.Z.M.A.H.H.H.H.H.C.B.M.K.J.K.C.l.z."
};
