/* XPM */
static char *result[] = {
/* columns rows colors chars-per-pixel */
"64 64 96 2 ",
"   c #6684FF",
".  c #6A87FF",
"X  c #6C88FE",
"o  c #728CFC",
"O  c #7C93F7",
"+  c #7790FC",
"@  c #7A92FA",
"#  c #E6CEB8",
"$  c #E6D2BE",
"%  c #ECD5BD",
"&  c #EED8BF",
"*  c #F0D7BE",
"=  c #F0D8BF",
"-  c #BAB7D6",
";  c #BEBBD7",
":  c #B3B4DC",
">  c #B9B7D8",
",  c #B7B8DF",
"<  c #BCBCDC",
"1  c #8197F6",
"2  c #869AF4",
"3  c #8C9DF1",
"4  c #869DFF",
"5  c #889FFF",
"6  c #9EA7E7",
"7  c #97A4EB",
"8  c #9AA7EC",
"9  c #9CA9ED",
"0  c #8AA1FE",
"q  c #99ADFE",
"w  c #9FB2FF",
"e  c #A6ADE5",
"r  c #A4AEEB",
"t  c #A7B0E7",
"y  c #ADB3E4",
"u  c #AAB2E8",
"i  c #B3B7E3",
"p  c #B5BAE5",
"a  c #BCBEE1",
"s  c #A3B4FD",
"d  c #AABAFF",
"f  c #B0BDF9",
"g  c #C0BCD7",
"h  c #C1BEDA",
"j  c #BFC1E2",
"k  c #B5C3FE",
"l  c #BBC6F9",
"z  c #BDC9FD",
"x  c #DFCCC4",
"c  c #D0C7CC",
"v  c #DCCDCB",
"b  c #DED1CB",
"n  c #C2C1DB",
"m  c #D3CBD4",
"M  c #DACFD1",
"N  c #D3CDD9",
"B  c #DCD2D3",
"V  c #E1CFC2",
"C  c #E6D5C4",
"Z  c #EAD7C2",
"A  c #E7D9C6",
"S  c #EDDAC5",
"D  c #E4D5CC",
"F  c #E7DACB",
"G  c #EDDDCA",
"H  c #F1DDC5",
"J  c #F0DECA",
"K  c #E0D4D0",
"L  c #E6DAD2",
"P  c #EDDED0",
"I  c #F0DFD0",
"U  c #EEE0CE",
"Y  c #F2E0C7",
"T  c #F1E1CC",
"R  c #EEE2D2",
"E  c #F2E3D1",
"W  c #F2E6DA",
"Q  c #F4EADD",
"!  c #C2C3E2",
"~  c #C6D1FC",
"^  c #C8D2FF",
"/  c #CED8FF",
"(  c #DBE2FE",
")  c #E7E1E2",
"_  c #ECE6E7",
"`  c #F5ECE0",
"'  c #F8F0E6",
"]  c #F9F2EA",
"[  c #E2E7FF",
"{  c #E4E9FE",
"}  c #EAEEFD",
"|  c #EDF1FE",
" . c #F7F5F5",
".. c #F8F6F5",
"X. c #F3F5FF",
"o. c #FDFDFD",
/* pixels */
"H T Y T E Z S G T F A S J J H J G G G T H H T T T E E T T J H E J G E J I J J J J E H S F E W H H E J I I I I E I G Z Z S J J J ",
"S H T T G S F J T T T S H G $ Z Z F J J S H S H T H H J E T J J J C P J J J J G F I G F T E E H H J J J S S H E J I J Z S H J I ",
"S A U U J H U G T T H S T H S C S E H S H H H J I P G G E E G G J G J I J J I I S H S G T J J H J I J I I S S J J J I S Z S J I ",
"U F A A G G G G J J S S J S F T E E G S Z H Y T E H G H J E U T J J J J P G J J J G G G T T J J J J E I J J H H S I I G S S J E ",
"T R F G J S G G G G F G G J G G T J S Z $ % G S C S G S J E E E T Y H T P F G J H F G P E J E T J J H H H H I I J I I J G J G P ",
"U R U T T G G G J G S G E T H H H * * J % % S G F P E G J E W E E W T T J G J J C C G I T J J J H H H J J H I I I J J Z S I I G ",
"U R U T R P F J U G G G R G G T J S H S Z H E W G F T S J R G G E E T T E T J T G G I H J J E T J J J E I H J J J J J I S J I I ",
"R U S U G G C S G J T R E E G T T T T Y F S E W G G G G G G J G E T J J J T G J J I J H J E E T J I E E I E J H G I I I P G J I ",
"E S & U S F F S G T U E T S G H H E E J J G J P G G G R E J J G J E J G Z S J P P G G H J T E T I H J I E E H S S P P G G I F J ",
"Y U A F G S U S & H T E J S U T J E E G G S S J W G Z S E J T T E E J G Z J G G I S H J H T G J J H H J E I J I G I G G W G H H ",
"T S A A & S U Y S S G G S S U T T E T J S S S S J H S G G E T U G H G G S H G S F J J J G T J T E J H H J J J J J J I W E E J H ",
"U Y Y S S S T F S G W G F S T T G J T S S T S S G J F R E W W G S G S S H H G G J J J J S S Y T E I E J H H G I J I P I E J H J ",
"S S S & S H H G F R E T E R E T Z F S S G H J J H J G E G T E G S G F J J H I G S & S Z & Z Y U F E E J J I F J J S I J J G Z H ",
"Z G U G J T J T E W W W U S R E G G T J G H G S H J T J J G ` ) a : M S Z H J J H H S % H H F T G E W G G I I J S S S H J H S J ",
"H U S S T T T Y U T W G G A G E T E U T H F C Z S E E T S W o.[ 5 X h G S H J S S Z S & * H T T J J J J J S J I G F H J J J J I ",
"S F S & H H G S S S J P G G G G T E G U T J S H Z J J E E Q o.{ 5 X y M K S J S S Z C S H Y T T J J E J I S H I S G J J H H J J ",
"S Z S S S Y H S H J J E G J E J E J H J I J J I T T E ' o.o.o.[ 4 . o + r F G Z G G F Z & C P E T H G H J G G J S E W E S H H J ",
"G & % S Y U S S J E E E G W E J J J S % H E T T T T T ] o.o.o.[ 4 . . X 8 B D G I E H G $ C F J J J J G J J J G J J I J H J J J ",
"S S & S T S S C G T T T J E J H H J H % % J E T U ] ] ..o.o.o.[ 5 X X X + 3 8 L G E G J H V Z G S G E J G I E G S H S H H G I J ",
"G S U Y Y U Y F H J J T H J G S H H H H H J E T G  .o.o.o.o.o.[ 2 o X X X X + D G G G J J Z G G G H C S S G W G G H H H E J H I ",
"G F G T T G S E E T S T G G G H Z Z % Z H G E ] _ z k ( o.[ k f p i 2 X 2 i y e u m H J E W W E G G G G H E G I I J H S G H H J ",
"F S U T G S S T U U U S T R G S H S S H H G W o.[ 0 X z X.^ + 1 m D 7 X r P K O o h F I J W E T H G J W J E H S J E I J Z S G J ",
"Y F T F S S Y G J U U U U E G F J J I I H J W o.| k w k / d o @ i h e 7 u n < + o < G I J I G H J I I I J I J H J E E H H S S H ",
"H Y G G S S S G F U U U U T T G J J J H H J Q ..o.X.{ d + + . X + + h D < + o o o h G J H J J J J J G J J J J E T E H S H I J S ",
"H H H G U G H T G S S C S F T U J J G H & % W o.o.o.X.d . . . . X X h S h o . X + ; S S T T T J J J H I E I J J J H H H H J H S ",
"S H E T T T J G S Z S C $ S U T H G G J H & W o.o.o.X.d X . . . X o ! S i o . X o ; & A S H G T E E J J E I J J J H H H I J H H ",
"T T E R G G F S S G G S S H T T J J I J H S E ..o.o.X.d X . X . X o ! J > o X X o < S S % & G G J I I I H E J S J J H H J J H I ",
"E U T E U Y T H H J S Z H H H J G J J J Y S E o.o.o.X.d X . X . X o g J < o X X + ; U A S S U S S H S J H H J J J J H H H J H I ",
"J S Y T U U G S $ H S Z J J H H H H S J J G W o.o.o.X.d X X X . X o h S < o X X o n S Y J T E J J J J T J J H J E I H H H S H H ",
"H J T T E U U U S Z H H E T H J T Z H J T J Q o.o.o.X.d X X X . X o < G , X X X + < U T T T E T J E J H H E J J J J J I S S H J ",
"Z G G G G G S T J S S H J H H H T T E T J E ` o.o.o.X.d X . X . X o h H , o X X o < G E J J J J H H S S J E E I I J I I S S H I ",
"T U F S U G U T G Z Z S H J S S T T T T E R Q o.o.o.X.d X . X . X X g S > o X X o j G P G E I J H S H H I E J J J J S J I S H J ",
"E T U U U U F T G S S S G T F Z S T H F G T W o.o.o.X.d X . X . X o h C > X X X + < F U R T Y T T T Y T J I H H H J G R F F F T ",
"G T G G U T T U T T Y G G T H S & Y S S G G W o.o.o.X.d X . . . . o h G a o X X + j U A Y T Y H T T J T I I J H H J G G U A S T ",
"G T G S R E R W R Y S U G H Y S Z S U U G T W o.o.o.X.d X . X . X X h J < o X X + j U A Y T U S G J T T G S H H H J J G R S S H ",
"H T T F R E E E T H J T E T T T S S E R G U W o.o.o.X.d X . . . X o ! J a o . X o j R Y G S U T T Y T T J J H S Y E E P R Y H H ",
"G U E F R E R T S S S E E T E T S J T G S G W o.o.o.X.d X . . . X X n E a o X X o h U S S H T T H T J G Z S H H G P P I E J S * ",
"T H T S F U U F F & S T E T T H S T S Z G S W o.o.o.X.d . . . . X o < Z > X X X + < Y G J T T T H T H $ % S H H J E G G G J * * ",
"S H H & G S S & S S H S U G T H H S S S G G Q o.o.{ ( d 0 @ X X X o h Z < o X X + h T Y H U T E E G T G S S Z S T E G S J T J H ",
"S * S H S G G U Y S Y S H S U T T G Y S F G Q ..} w 4 z { k o X X o < C < X X X o h S J J S G U G G T J Z Z * S J P J I I E T * ",
"G H S J H T T T H S Y Y H G T T T Y U H S S P | ( 4 . k } ~ @ o o @ < L , O o o o h S G U T Y S % Z J H H H J J J W E E E E J S ",
"J J H J S T T H H T Y Y H G U G T S G U S S N s q + X 5 w d ~ ~ ! < e 9 e - : o o ; Z S T T Y S S J G G C J T J T G G T J J J * ",
"H G J G H T H Y T T T T & S J G S F S G H H n o X X . .   s X. .E G 9 X r C v @ o ; S T T T U % S G T G H J J J T F G T E J H H ",
"T T J S T T T T G S J H H H U U G S S Y T S c e 6 o X X   4 k l a i 2 X 3 , i e t m U T T T U & S H G J J H S H H T T T W G J H ",
"Y Y S $ H Y T J S Z Z & S J E G S & H H J G A C v 1 X X . X X X o X X X X X @ v S G U U T S U U Y S F T H H H * J I G G E E G G ",
"H H S S H H S S S S S T R T T S S S S J G T G C V 7 3 + . X X . X X . . O 3 7 C H Y T T T Y T Y G S G T H H S S I J J H J E J T ",
"S Y S S U T T H J T Y F G E T H H U J J E T J $ # x v 6 X X X . X . . X 8 M b G T H Y T T Y T T G G U T H * S H W E H J J J J H ",
"Y H & S G U T T T T Y G U E T Y U G S S G G J & % & C e o o X X X X o o e G S G T H Y S T T T T E T E T H Z S J E J G G E J J S ",
"T H & & T T T E T T * S T T T T S U Y S U T T U H S S B N y o X X X u N v S S U T H T T T T T T T T T T J G J J J E E E G T H T ",
"T H S T H Y T T H H * % Y Y = H S S S U T Y Y S S S S G F h o X X o n S A S Y Y T Y T Y T T T H T T U E J J E J T E J J F S T T ",
"G S H J J H S Z % & H H Y S Y S S & & S S U Y S S S S T U b i y i i B Z Z S Y & H T T Y T T T H S T S S J J T E E T T S S Z S H ",
"T G H S F G H S % * T T H G Y Y Y % & G U U U H S S U T Y T T T G R T S S S S A S T T T T T Y S S T U G H H T T T T T H F S S S ",
"T T J G G S H G S G T U S S U Y H S S S G G T Y Y U S H Y H U G S U G S G S S S U E T Y T T T T S T E T E T T T T H Y H S S S S ",
"T H J G S J J G U S Y S S F T S T H S H H Y H H T Y % % T T U Y Y S A S G U U S Y R S S S S Y T T T S S E E T T T H H J H H G T ",
"S Z J S S G J J S S S T Y U T S J U G T H * H H G U S S T Y Y T T S S U T Y Y T U T U S S S Y T R T S S T E T Y T E H T T Y T T ",
"% & H H S G J S S S Y H S S U H H G H H * H S T U S G G T S & & S U S S G U S H & S U S Y T U S U T S G H T T S H E Y T Y H H H ",
"S H Y Y Y Y S F E T S S S & U Y S S H H S S S T U S U T Y S S & & S A & S Y S S & S Y Y Y U T T G E E J J S J T H Y T T H H H T ",
"U Y Y S Y U U U U Y Y A U Y E F S G G Y H H T G U U T Y G S S = % % S S & H Y S A S U Y U E Y T E I J H H Z G T J T T G H H Y T ",
"Y U S & S U U U S U Y Y U T U U F S S Y S S S G T Y H S S Y U T U S S S * Y T T Y Y U U E T Y U E E E S % Z S S H G E T G H H H ",
"G H S % S F A S U Y S S U E E T U G S S G S U U S Y H Y U U E U S % C & Y Y U E Y S U U U U U U E T E H $ H T H H G G G H H H * ",
"S S * * S A A A A A % U E E Y U S H U G F U U F S S S Y T S U U & & S S Y Y G T Y Y U U T J H S J J E J H Y T T G G G U G S J S ",
"S S Y * S F A S Y & $ U E T Y S S * H Y U S U U S & S S G G E T = H S Y Y T U S A & A Y G G G J H J T H Y T T H F S G W J S H H ",
"S Y Y & S U E U S U A A Y U S % % % & S U G U U R S Y Y Y Y S U H S U S H Y S S S $ $ Z F H H S H J H J T T T E T % G E W J C * ",
"& T T G S T T U S & S S U Y Y Y H S S G R R U U R S U U Y U A & S & U S T U U F U A & S H * * H S J T T T T T U S % J R W G $ % "
};
