/* XPM */
static char *result[] = {
/* columns rows colors chars-per-pixel */
"64 64 107 2 ",
"   c #020201",
".  c #0D0701",
"X  c #0F0802",
"o  c #0B0B0B",
"O  c #140B03",
"+  c #180E04",
"@  c #18110A",
"#  c #161513",
"$  c #1B1713",
"%  c #1D1813",
"&  c #221204",
"*  c #2E1602",
"=  c #341B05",
"-  c #271C10",
";  c #281D11",
":  c #35200D",
">  c #342516",
",  c #252626",
"<  c #2F2C27",
"1  c #312C27",
"2  c #322E29",
"3  c #3F3A35",
"4  c #3C3C3C",
"5  c #4B2301",
"6  c #552801",
"7  c #4F361D",
"8  c #53391E",
"9  c #682F00",
"0  c #663104",
"q  c #693001",
"w  c #683508",
"e  c #4C463E",
"r  c #664524",
"t  c #444444",
"y  c #4C4740",
"u  c #4D4842",
"i  c #59524C",
"p  c #747474",
"a  c #7B7B7B",
"s  c #954704",
"d  c #964906",
"f  c #9A4903",
"g  c #964B0B",
"h  c #AF5303",
"j  c #B15404",
"k  c #A5723D",
"l  c #C15B04",
"z  c #D46303",
"x  c #DA6501",
"c  c #E36A03",
"v  c #ED6E02",
"b  c #ED7006",
"n  c #C16D22",
"m  c #D57620",
"M  c #AE7840",
"N  c #B67C43",
"B  c #857A6E",
"V  c #867D72",
"C  c #897E72",
"Z  c #EB8427",
"A  c #8A8074",
"S  c #8B837A",
"D  c #998D7F",
"F  c #C08345",
"G  c #D6914D",
"H  c #EA9D4F",
"J  c #E99F53",
"K  c #EBA055",
"L  c #858686",
"P  c #9A9084",
"I  c #A99B8B",
"U  c #BBAB9C",
"Y  c #BCAFA0",
"T  c #BEB1A2",
"R  c #C0B29F",
"E  c #C9B49F",
"W  c #C1B4A3",
"Q  c #CBB7A3",
"!  c #C7B8A7",
"~  c #CBBAA6",
"^  c #C1B7AB",
"/  c #C7B9A9",
"(  c #CDBEAC",
")  c #CEC0AF",
"_  c #CDC1B1",
"`  c #DCCBB6",
"'  c #E1CFBA",
"]  c #E5D2BE",
"[  c #EBD5BD",
"{  c #EED8BF",
"}  c #F0D7BE",
"|  c #F0D8BF",
" . c #E6D5C3",
".. c #EAD7C2",
"X. c #E7D9C6",
"o. c #EDDAC5",
"O. c #E7DAC9",
"+. c #EDDDCA",
"@. c #F1DDC5",
"#. c #F0DECA",
"$. c #EFDFD0",
"%. c #F0DFD0",
"&. c #EEE0CE",
"*. c #F2E0C7",
"=. c #F1E1CC",
"-. c #EEE2D2",
";. c #F2E3D1",
/* pixels */
"@.=.*.=.;...o.+.#.O.X.o.#.#.@.#.#.+.o.%.@.@.=.=.=.;.=.=.;.@.#.;.@.o.%.#.;.#.#.#.#.;.#.o.O.;.;.#.#.;.#.#.%.%.%.%.%.#.....#.#.#.#.",
"o.@.=.=.+.o.o.+.=.=.=.o.+.@.] ..X.O.#.#.@.@.o.@.=.#.@.=.;.=.#.#.#.X.$.#.#.+.#.+.X.;.+.O.;.;.%.@.#.#.#.#.o...#.;.#.#.#.o...#.#.#.",
"o.X.&.&.#.#.+.+.=.=.#.@.#.#.X.o.o.%.#.o.@.@.@.#.;.$.o.#.-.;.+.&.%.+.#.%.%.#.%.#.o.o.o.O.#.#.#.#.#.%.#.%.%.@...#.#.#.%.o...o.#.%.",
"&.O.X.X.o.+.$.+.#.+.o.o.#.o.O.#.;.;.o.@.o.@.#.#.$.+.o.#.=.;.+.;.#.#.#.#.$.+.#.#.%.#.+.o.#.=.#.#.;.#.%.;.#.#.#.#.o.%.%.o.o.o.#.;.",
";.-.O.+.#.o.+.+.+.+.O.+.+.#.o.+.#.#.@...] ..+.O.X.X.+.o.#.;.;.;.=.=.@.#.$.O.+.#.+.o.+.$.;.#.=.=.#.@.@.@.@.#.%.%.#.%.%.+.+.+.+.%.",
"&.-.&.=.=.+.$.+.#.%.o.+.;.;.@.#.@.@...@.[ ..o.$.o.+.;.o.#.;.;.;.;.;.;.=.+.o.#.#. . .$.$.;.#.#.+.@.#.@.@.#.@.%.#.#.#.#.o.o.%.%.+.",
"&.-.&.#.-.+.O.+.&.o.+.+.-.+.o.;.#.o.@.o...@.;.;.+.O.%.o.#.-.+.#.;.;.=.=.;.=.#.;.+.+.%.#.@.#.;.;.#.#.%.;.#.#.#.#.#.#.+.%.o.#.%.%.",
"-.+.+.&.+.+.X.o.+.#.+.;.;.;.+.#.#.#.#.#.o.@.;.;.+.+.$.+.$.+.+.+.;.=.#.#.#.=.+.#.#.%.@.@.#.;.;.=.#.#.;.;.%.;.#.@.+.$.%.%.$.#.#.%.",
"=.o.o.+.o.X.+.+.+.=.&.;.#.+.+.@.o.;.;.#.@.+.#.%.$.+.+.$.;.#.#.+.#.;.#.o.] #.#.%.$.+.+.#.*.=.=.*.#.#.@.#.;.;.#.o.+.$.$.+.+.;.O.#.",
"*.&.X.O.+.+.+.@...@.;.;.#.o.+.=.#.;.;.#.+.o.o.#.;.o.X.o.;.#.=.=.;.;.;.o...#.+.+.+.o.o.=.+.*.#.=.#.#.@.#.;.#.#.%.+.$.+.$.$.$.#.o.",
"=.*.o.X.[ X.&.+.o.o.&.+.X.X.*.=.;.;.=.#.X...'  .X... . .X.O.O.O. . .X. .] .. . . . .o...X.+.+.&.;.#.#.#.#.#.%.#.+.#.%.;.;.#.#.@.",
"#.+.+.o.@.o.+.+.o.#.-.&.+.+.=.=.#.#.#.' I C C C C C C S S S S C C C C C C C C C A A A A B P ` *.%.$.;.@.@.#.o.%.#.%.%.$.;.#.#.#.",
"..o.X.{ o.@.#.+.-.;.;.;.=.;.;.&.X.o.O.( i # # # # # # # # # # # # # $ % % % , $ % % % % # 3 T +.O.;.;.%.+.%.+.#.#.+.#.#.=.#...@.",
"o.+.=.+.#.#.#.=.-.;.;.;.;.o.+.;.o.+.=.( e                         O 7 r r r r r r r r 8 @ < Y &.#.;.;.o.#.%.%.+...o.o.@.#.#...#.",
"@.#.+.X.#.#.;.#.-.;.;.$.O.X.$.;.=.;.&.) y                         - k G G G G G G G G M > 2 T +.#.#.;.#.+.o.#.%.+.o.#.#.#.#.#.%.",
"+.+...{ @.@.#.o.X.o.#.%.+.+.+.+.=.-.+._ u o                       ; N J K K K K K K K F > 2 T &.+.#.;.#.%.o.#.%.o.+.#.#.@.@.#.#.",
"+.[ o.o.@.=.@.o.@.#.#.;.+.#.;.=.#.#.@.( u o                       ; N J K K K K K K J F > 2 T $.;.@.#.#.#.o.o.#.+.;.;.;.o.@.#.#.",
"+.[ [ o.@.=.+.o.#.;.;.;.$.;.;.%.=.#.@.Q y                         ; N J K K K K K J J F > < Y +.#.#.#.o.#.#.%.+.#.#.;.#.#.#.#.#.",
"@.X.{ @.+.o.o.] o.%.=.#.#.;.#.@.@.@.@.Q e                         ; N J K K K K K K J F > < U O.o.+.%.=.X.;.;.+.o.@...#.o.#.#.#.",
"+.o.+.*.=.&.*.+.#.#.#.=.#.#.o.@.@.@.#.~ e                         ; N J K K K K K K J F > 1 Y O.o.o.o...o.-.;.$.#.@.@.@.%.#.#.%.",
"o.+.+.=.#.+.@.=.;.=.+.=.+.+.+.@.....[ Q e                         ; N J K K K K K K K F > 2 T -.+.o.o.o.#.;.+.#.;.@.@.o.#.#.#.#.",
"O.+.+.&.+.o.+.=.&.&.+.@.#.-.+.o.#.@.o.( y                         ; N J K K K K K K K F > 2 ^ -.+.$.%.;.=.;.#.o.#.;.#.#...o.o.#.",
"+.+.=.+.X.+.@.+.#.&.+.&.;.;.+.O.#.#.=._ u                         ; N J K K K K K K J F > 2 T o.#.;.%.;.#.#.#.@.#.;.;.#.@.o.o.#.",
"@.+.+.@.o.o.o.+.O.-.&.&.&.=.&.+.#.#.@.) u                         ; N J K K K K K K J F > 2 T o.#.#.+.#.#.;.#.%.#.;.@...#.#.#.@.",
"@.@.@.+.=.+.@.=.+.o.o.o.o.O.&.&.#.+.+.( e                       o - N J J J J K K K K F > 2 T +.#.#.#.%.%.%.#.#.#.@.@.@.@.#.@...",
"o.+.=.=.*.&.+.#.o. .X. .....=.=.@.o.#.( u                 o 4 t # - N J J J K K K K J F > 2 T +.;.;.#.#.;.;.#.#.#.#.@.#.#.#.@.@.",
"=.=.;.=.+.+.+.o.@.#.@.O.o.@.=.=.#.=.;.( e                 # p a , - N J J K J K K K J F > 1 U o.#.%.;.#.#.=.#.o.#.#.@.@.#.#.@.%.",
";.+.;.;.&.*.+.+...#.o...#.@.@.#.+.@.#.( e                 # a L , - N J K K K K K K K F > 2 T ..o.@.o.#.@.#.#.#.#.#.@.@.@.#.#.%.",
"=.o.@.=.&.&.&.o.[ o.o...#.#.@.@.@.@...( y                 # p L , ; N J K K K K K K K F > 2 ^ o.#.#.#.=.@.@.@.#.;.#.@.#.@.@...#.",
"| +.=.=.;.&.+.&.o...o.@.;.#.@.@.=...@.) u o               o 4 t # ; N J K K K K K K J F > 2 W #.@.;.#.#.#.;.%.@.%.#.#.#.@...@.#.",
"o.&.+.+.+.@.+.#.#.o.o.#.#.@.@.@.=.=.;.) y .                 o o o ; N J K K K K K K J F > 2 Y @.@.@...o.%.;.;.%.#.#.#.%.@...@.%.",
"=.&.O.+.&.+.&.=.o.o.o.o.@.#.@.o.=.=.=.) u                         ; N J K K K K K K J F > 2 R #.@.o.@.#.#.;.#.#.#.#.%.%.o.%.@.#.",
";.;.+.&.&.&.+.=.+.o.@.+.+.#.+.{ o.=.+.( u                         ; N J J K K K K K K F > 2 R =.=.=.@.=.%.%.@.@.@.#.+.&.+.O.O.=.",
"+.&.+.+.&.&.&.-.&.=.@.+.&.@.+.X.o.@.o./ y                         - N J K J K K K K J F > 2 R o.*.=.=.=.%.#.@.#.#.@.+.+.$.X.o.#.",
"+.=.+.o.-.;.-.-.&.@.+.+.+.@.=.o. .o.;.( y                         ; N J K K K K K K J F > 2 T o.#.@.*.&.o.#.#.@.*.=.#.O.-.o.o.=.",
"@.=.&.+.-.;.;.-.=.*.=.=.=.=.=.=.o.o.-._ y o                       ; N J K K K K K K K F > 2 T +.=.=.=.&.#.#.@.@.@.=.;.-.-.@.@.@.",
"+.&.;.+.&.;.-.&.o. .=.=.;.=.;.=.@.@.=.( y                         ; N J K K J K K K K F > 1 W +.@.=.#.o.o.o.@...+.$.$.%.-.#.@.} ",
"#.@.#.X.+.+.&.+.+.[ o.=.;.=.=.@.+.@.o./ y                         ; N J K K K K K J J F > 1 ^ +.#.=.@.] ....@.#.;.;.+.#.+.#.} } ",
"+.@.@.{ +.o.o.{ o.@.@.+.&.+.&.@.@.o.@.! y                         ; N J K K K K K K J F > 1 W #.=.+.=.+.o.@...o.#.;.+.o.#.=.#.@.",
"{ | +.@.+.+.+.+.@.+.+.| @.o.=.=.=.+.@.( y                         ; N J J K K K K J J F > 1 Y o.+.+.=.#.....} o.+.$.o.%.%.;.=.} ",
"+.@.o.#.#.=.=.=.@.o.*.*.*.+.=.=.=.#.&.( e                       o > N H H H H K H H H F > 2 W X...[ =.#.@.@.@.@.#.;.;.;.;.;.#...",
"@.#.@.#.@.#.=.@.@.=.*.@.@.+.&.+.#.@.+.( e                     + w g m m Z Z Z Z Z Z Z n : 2 R o.o.#.+.o.X.%.;.#.;.+.+.=.#.#.#.} ",
"@.+.#.+.@.=.@.@.=.=.=.*.{ o.#.+.+.+.+.( u                   X = j v b b v b b b b b b l = 2 R ] X.@.#.+.o.@.#.#.&.+.O.;.;.#.@.@.",
"#.=.#.o.=.=.=.=.@.+.+.@.@.@.&.&.o...o.) u o               + 0 d z v b b v v v v v v v l = 2 R ..@.@.#.%.#.@.o.@.#.#.=.=.;.+.#.@.",
"=.*.@.] @.@.=.=.o. .o.o.+.#.&.+.X.{ @.( u o             . * h c v v v v v v v v v v v l = 1 Y o.@.+.O.#.@.@.@.} #.%.+.o.;.;.+.#.",
"@.@.{ o.@.*.o.o.o.o.@.@.&.=.=.+.| { +.( u             O 0 s z v v v v v v v v v v v v l = 1 ^ o.+.o.+.=.@.@...@.;.#.#.#.;.;.#.%.",
"+.@.o.o.&.;.=.+.+.=.@.+.+.=.=.@.@.=.=.) u           . = h c v v v v v v v v v v v v v l = 1 Q o.+.+.=.;.@.@...#.;.;.#.#.#.#.#.#.",
"*.@.{ ..+.=.*.=.=.=.#.#.&.;.=.*.&.&.o.( u         + 0 d z v v v v v v v v v v v v v v l = 2 E o.=.=.;.=.@...o.#.;.#.o.+.;.#.@.o.",
"=.@.{ o.=.=.=.=.=.=.} o.=.=.=.=.*.*.+.~ e       O = h c v v v v v v v v v v v v v v v l = 2 W +.=.=.=.=.#.+.#.#.#.;.;.;.+.+.*.=.",
"*.@.o.=.=.@.=.=.@.@.} { *.@.| @.X.+.+.) e o   + 0 d z b v v v v v v v v v b v b v v v l = 2 R o.=.=.&.;.#.#.%.=.=.=.#.#.+.o.+.=.",
"+.o.@.@.#.o.@...[ { @.@.@.o.*.@.@.{ X.~ e     & f z x x x x x x x x x x x x x x x x x j = 1 W X.+.=.o.+.@.#.=.;.;.=.=.o.o...X.*.",
"=.+.@.o.O.+.@.o.[ @.@.=.*.+.*.*.| [ { ~ u     O 5 0 q q q 9 9 q q q q 9 9 q q q q 9 q 6 + 2 T { [ =.-.o.#.=.@.=.;.=.=.@.X.o.o.@.",
"=.=.@.#.+.o.@.+.o.+.=.+.X.+.=.*.*.o.o.) i # # @ $ % @ % % - % % - $ $ $ % % $ % % % % $ $ 3 W @.+.=.=.=.;.=.=.=.=.@.*.@.@.o.o.o.",
"=.@.#.#.o.#.+.+.+.+.*.+.X.@.#.o.=.o.{ ] I A A B V B B B V V V C V B B B V V B B B C V B B D ` =.=.=.+.o.=.;.;.=.=.@.@.@.@.@.o.;.",
"o...@.o.X.o.%.#.o.{ +.@.=.=.=.o.*.&.&.=.{ [ { X.o.X. .] +.o.X.o.X. . .o.o.X.o.o.o.+.O.] ] X.*.=.&.=.{ +.=.=.=.@.=.;.@.=.=.@.#.=.",
"[ ..@.#.@.+.#.@.+.*.@.@.+.o.@.+.+.+.*.| | { o.&.&.o.&.+.+.{ { { @.+.+.+.&.+.o.+.[ o.+.@.*.&.*.+.&.=.+.+.@.=.=.@.@.;.=.=.*.@.@.#.",
"+.@.*.@.*.*.o.X.=.&.{ o.o.{ &.*.o.o.+.@.o.o.o.*.*.+.&.=.*.{ o.{ [ { ......@.@.@.{ *.*.*.*.=.=.=.+.;.;.#.#.o.#.=.=.*.=.=.@.@.@.=.",
"*.@.*.+.+.&.&.&.&.*.*.X.&.*.&.+.o.+.@.@.@.@.#.+.&.&.=.*.+.+.o.{ { [ o.o.| @.@.+.X.o.&.+.&.;.*.=.;.#.#.#.@...#.#.@.=.=.+.@.@.*.=.",
"*.+.@.{ o.=.&.&.+.=.&.*.&.*.-.&.+.o.o.@.+.o.+.&.&.@.*.+.o.*.&.=.=.o.O.@.| @.=.;.*.*.&.&.=.=.&.=.;.;.#.@.] ..@.o.@.#.&.=.#.@.@.@.",
"+.#.o.[ o.O. .+.+.@.@.o.&.;.;.&.+.+.+.+.+.o.+.#.*.@.o.*.*.&.;.=.o.[  .{ *.*.+.;.*.{ &.&.&.&.&.&.;.=.;.#.[ @.=.@.#.+.+.+.o.@.@.| ",
"o.o.| { o.X.X. .X.o.[ +.;.;.*.&.o.@.#.+.+.&.+.+. .X.@.@.+.+.&.&.{ } X.o.=.=.+.=.*.+.&.-.=.=.#.o.+.#.;.#.@.#.=.=.+.+.-.-.+.o.#...",
"@.o.@.} o.X.+.+.*.o.] &.;.=.*.o.o.| @.@.&.X.&.&.+.{ o.@.+.&.=.=.| @.@.*.*.@.&.@.o.[  .*.+.o.+.#.@.#.=.#.*.=.=.@.o.O.$.;.#.o.@.@.",
"o.#.@.{  .&.;.;.+.+.X. .*.*.o.[ { [ [ o.&.+.&.&.&.+.@.@.=.*.+.+.@.o.&.o.*.+.o.o.+.] ] [ O.@.@.#.@.#.@.#.=.=.=.=.+...+.;.;.%...| ",
"{ *.=.&.&.*.=.=.X.[ o.+.&.&.*.*.@.@.X.+.-.-.+.&.-.+.&.=.*.+.{ { +.{ +.+.*.&.+.+.&. .{ o.@.@.} @...@.=.=.=.=.=.-.o.[ ;.-.;.#.' { "
};
