/* XPM */
static char *result[] = {
/* columns rows colors chars-per-pixel */
"64 64 54 1 ",
"  c #000000",
". c #0B0B0B",
"X c #161616",
"o c gray10",
"O c #232323",
"+ c #2F2F2F",
"@ c gray21",
"# c gray23",
"$ c gray26",
"% c #4B4B4B",
"& c #535353",
"* c #5B5B5B",
"= c gray42",
"- c #717171",
"; c #7A7A7A",
": c #808080",
"> c #8B8B8B",
", c #959595",
"< c #A4A4A4",
"1 c #AEAEAE",
"2 c gray71",
"3 c #BBBBBB",
"4 c #E6D2BD",
"5 c #ECD5BD",
"6 c #EED8BF",
"7 c #F0D7BE",
"8 c #F0D8BF",
"9 c gray78",
"0 c #C9C9C9",
"q c #DEDEDE",
"w c #E6D6C3",
"e c #EBD7C2",
"r c #E7D9C6",
"t c #EDDAC5",
"y c #E7DBC9",
"u c #EDDDCA",
"i c #F1DDC5",
"p c #F0DECA",
"a c #EFDFD0",
"s c #F0DFD0",
"d c #EEE0CE",
"f c #F2E0C7",
"g c #F1E1CC",
"h c #EEE2D1",
"j c #F2E4D1",
"k c #F2E7D8",
"l c #F3E8D8",
"z c #E2E2E2",
"x c #EBEBEB",
"c c #F8F0E5",
"v c #F7F1EA",
"b c #F9F4EC",
"n c #F5F5F5",
"m c #FEFEFE",
/* pixels */
"igfgjetudyrtppiiuuugiigggjjggpijiuspjpppijprujjppjpssssjpueetspp",
"tigguttuggguiueewtpptitigiugjgppiyappupuysutajjtipppttpjpsieeppp",
"trddpiuuggitpuretjttiiipjutpjjyusupsppsptpeupppipspssteppisuetps",
"uyrruuauputtpttpjjuttipgjutipjgpipppaupspuuupjppspsjpppitssutipj",
"jhypptuututtupuugpte45uuwtuupjljgippautupyuajsjppiiiiisspssuuuus",
"hhugguuuuhtujhtpi78pe5uuyahupjjljlgguuupwwuspppiipippisssppetssu",
"dhdghayuhuuuhuugdtiu6tjjuuutiauujjggjppjuuppppjgppgjppppppustpss",
"huuduuwtuugjjgdgpppitukjuuatauuugjpppjpipspipjlgppjjsjpiuassapps",
"gututtytuggjpuuitjjguuspuuuhjppupjpu5uuaauupigjfppppljpetaauuauu",
"furyyudi6ijjutugpgjppttpjuetspjghjpu5puudttgippppiipjppspauujape",
"gftretduttdduugjlljjuuugjgujjjljjjsupgjuhgjgjlglksgjgppppuskljpp",
"iuuittgytukmmmmmmmmmmmmmmmmmmmmmmmmmmmmmmmmmmmmmmmmmbiuspsaagipp",
"etettiiuujlmmmmmmmmmmmmmmmmmmmmmmmmmmmmmmmmmmmmmmmmmbsyspisppiei",
"tuudpgpghklmm1--------------=-----=---=---=---=--;qmbssptepepiep",
"fdu6pgjudjkmm-                                   X3mbupsuyipppsj",
"uye6iiptetjmm;.X.X.                              X9mbtistpppiipp",
"u56tigitiismm1====$                              X9mbuupujkseipp",
"u65tiggepjkmm2::::&                              X3mbppuppjppppp",
"ie6dgyewupjmm3;:::-**o                           X9mbhjutiepuipp",
"utyffgfyppjmm3::::1nx*                           X3mbhjupiiispij",
"tuugppijjdumm3::::1nn* .                         X3mbjpssppeiipp",
"tuuguttddhdmm3::::1mm>&*&**&%X                   X9mbjpepgjieuui",
"uygyttiuadjmm3::::1mn1;:::::;O                   X9mbgpiijjpitep",
"iuuuttuutujmm3::::1mm1:::::;;$+O                 X3mbgpjilpepppp",
"iiiuduiguypmm3;:::1mm1;:::::>9q<X                X9mbspppiiiipii",
"uigggfiutwumm3::::1mn1::::::>qm3X                X3mbjpppiipsiii",
"ggjhuutuippmm3::::1mn1::::::>qm9%######O         X3mbjpeppiippis",
"gujjdduiepumm3:::;1mm1::::::>qmq>;:::::&         X9mbpppsiiiiips",
"gtigjddt5ipmm3::::1mn1::::::>qmq>::::::*XX.      X9mbpppjipppiep",
"ipggjuuduepmm2::::1mn1::::::>qmq>::::::,32$      X3mbjppppppteip",
"tuuuuuuiutimm3;:::1nm1;:::::>qmq>;:::::1mn*      X9mbljjspssttis",
"ddtydddgueumm3::::2mn1::::::>zmq>:::::;2mn=OOOOOO@0mbspppppputpp",
"jjuhhuugutgmm2::::1mm1::::::>qmq>::::::1mn<;;-;;-:qmbjpippuduyyd",
"uguuddhjgggmm3:::;1mn1::::::>qmq>:::::;2mm1;:;::;>zmbppiipuuhwtg",
"igythjhhhigmm3::::1mn1::::::>qmq>::::::2nn1::::::>qmbipiiguudrti",
"iguthljjgigmm3::::1nm1:::::;>qmq>:::::;1mm1::::::>zmbpiifgdhhgii",
"udjthhkdurgmm3::::2mn1;:::::>qmq>::::::2nm1;:::::>qmbtieuaasjpt7",
"pputuuuyt5pmm2::::1mm1::::::>qmq>:::::;1mm1;:::::>zmbeippjuipp87",
"iiutttt6tigmm3::::1mn1::::::>qmq>;:::::2mn1::::::>qmbeeejjutpgpi",
"t8tiuuuuiugmm3:::;1nm1::::::>qmq>::::::1nm1::::::>zmbe7iuaussjg7",
"uitpiggiiifmm3::::1mn1;:::::>qmq>::::::2mn1;:::::>zmbtipujjjjjpe",
"piipuggiipjmm3::::1mn1::::::>qmq>::::::1mn1::::::>qmbpjgguupppp7",
"tppupfiggjjmm2::::2mm1::::::>qmq>::::::1mn1::::::>zmbpgfjtyjlgii",
"ggptggfgfygmm3::::1mn1::::::>zmq>::::::1mm1::::::>qmbtiippjgjupi",
"gf84tfgptwtmm3::::1mm1;:::::>qmq>;:::::2nm1::::::>zmbiiepsuujjup",
"ifttifutttgmm3:::;1nn1::::::>qmq>:::::;1mn1::::::>zmbp7ejppppsps",
"tfttgggipggmm3::::1mn1::::::>qmq>::::::1mm1;:::::>qmb7epjjpipppi",
"fiteuugggggmm3::::1mm1::::::>qmq>::::::2nn1;:::::>zmbiepspuujpit",
"gu66ggfjggimm3::::1mn1::::::>qmq>::::::1mn1;:::::>qmbppppljjugpg",
"fiugigggiiimm3>>>>2mn2>>>>>>,zmq,>>>>>>2mm2>>>>>>,zmbpjpgpgpttug",
"utiipite56immxzqhqxmmxqqqzqqzmmnqqqqqqhxmmxzzqzqzzmmbpfjjfpet5eg",
"guityuit5igmmmmmmmmmmmmmmmmmmmmmmmmmmmmmmmmmmmmmmmmmbppgjgjitttu",
"ggpptuiuuugbbbbbbbcbbbbbbbbbbbbbbbbbbvbbbbbbbbcbbbbbcgggfifiuueu",
"giguuiuuutguedptgitfiiftgg56igggiuerudueugytutfgggtugjjggiiptitg",
"tepeeupp6tuigggtguggi8iiudtegfiifttdgffggggueuffhg6upjgijjggffig",
"56iitupiuffiueiuiuii88iggedugtt6tuuuddti5tuifggudgtuiggipgfgfiif",
"uifiiftygd6tt6dfttiitttgdtdgf6t66ee6eitieffffgggujjpptpgiffgiiig",
"iffuuddddfftdfjyuypiiuuuddgftut865tt6ffurtdudgggjpppiepppfgpiigg",
"fui6tgddtgdfdghduttiitugffiuufdgdutu8idgffddjgfdjjje55utuuhguiii",
"upt5tyytufttghjduutuutuuufiufdjgt54effdgf6ddddddjgjp5tgipuyptii8",
"tt86treyry6tjgfdeipdydyd5tufdugd66etggugffdhgpptugjiipgpuuahutpi",
"it88tyyttt4djgff6iiigtddte6uuddgtiftffdit4rfuiuuipgpgffgytujptii",
"tgfttdjhftrrfdr5656ugudddyfufiuui6fuffteu454yiipipipgggjpeukjpe6",
"6fguyfgjtettdfffiteuhhdhhtfgfgw6feuudduudr5tii8ieigggight5uhku45"
};
