/* XPM */
static char *result[] = {
/* columns rows colors chars-per-pixel */
"64 64 194 2 ",
"   c #E65E12",
".  c #E85D14",
"X  c #DF7412",
"o  c #DE7B14",
"O  c #E66214",
"+  c #E86216",
"@  c #E36A14",
"#  c #E76718",
"$  c #E96619",
"%  c #EB6B1C",
"&  c #E17313",
"*  c #E07A16",
"=  c #E6781B",
"-  c #E86722",
";  c #E76922",
":  c #E76B25",
">  c #E96C22",
",  c #EE7323",
"<  c #EE7D27",
"1  c #E9722C",
"2  c #F07A27",
"3  c #F17B29",
"4  c #E77532",
"5  c #E67A33",
"6  c #E97C3E",
"7  c #EA7F40",
"8  c #DB8414",
"9  c #D78E14",
"0  c #D98A14",
"q  c #D69415",
"w  c #DC991D",
"e  c #CFAA15",
"r  c #D1A115",
"t  c #CBB715",
"y  c #CAB915",
"u  c #D4B01D",
"i  c #E88827",
"p  c #F3822E",
"a  c #F08F2F",
"s  c #EA962C",
"d  c #EF8033",
"f  c #F48631",
"g  c #F68D36",
"h  c #F68E39",
"j  c #F98D38",
"k  c #EE9E32",
"l  c #F49235",
"z  c #F7943A",
"x  c #F9943C",
"c  c #FA983F",
"v  c #DBB726",
"b  c #D5AB31",
"n  c #D1BE33",
"m  c #E2AA29",
"M  c #EFAE3A",
"N  c #F1A639",
"B  c #E5B531",
"V  c #E8BC37",
"C  c #EDB63B",
"Z  c #EBB93A",
"A  c #F2B13F",
"S  c #BFDE17",
"D  c #BDE217",
"F  c #BAEC17",
"G  c #BEE618",
"H  c #BDEC1B",
"J  c #B7F717",
"K  c #B8F617",
"L  c #B6F917",
"P  c #B7F718",
"I  c #B9F619",
"U  c #B7F818",
"Y  c #B8F81A",
"T  c #BAF623",
"R  c #BFF52D",
"E  c #C8C116",
"W  c #C4CC16",
"Q  c #CAC61A",
"!  c #C7CC18",
"~  c #C2D316",
"^  c #C2E41E",
"/  c #C2EA1E",
"(  c #CDC822",
")  c #DCC32D",
"_  c #CADD23",
"`  c #CFDA28",
"'  c #D6D32C",
"]  c #D8D02E",
"[  c #DDCB31",
"{  c #D8D233",
"}  c #E0C633",
"|  c #C7E322",
" . c #C9E224",
".. c #C2EB34",
"X. c #C0F333",
"o. c #C2F13B",
"O. c #E98245",
"+. c #E98448",
"@. c #FC9E43",
"#. c #F99845",
"$. c #EA8C53",
"%. c #EA8F58",
"&. c #EB945E",
"*. c #F49C54",
"=. c #DDBA4C",
"-. c #FDA246",
";. c #F5AC41",
":. c #F9A844",
">. c #FEA44A",
",. c #F8A949",
"<. c #F1B241",
"1. c #FEA751",
"2. c #FDA852",
"3. c #FAA758",
"4. c #FCAC5C",
"5. c #EB9560",
"6. c #F9AC60",
"7. c #FBB166",
"8. c #FAB46D",
"9. c #EAA375",
"0. c #ECA679",
"q. c #EAA878",
"w. c #F3AB71",
"e. c #F6BA7D",
"r. c #F8BB7E",
"t. c #D3D75B",
"y. c #C7EF4B",
"u. c #C9EC4C",
"i. c #D4E14E",
"p. c #C5F241",
"a. c #C8F14C",
"s. c #CEE051",
"d. c #CEED5D",
"f. c #E1D571",
"g. c #CFED63",
"h. c #D1EE6C",
"j. c #D7EA7C",
"k. c #EAAD83",
"l. c #EEB287",
"z. c #F3BA84",
"x. c #F8BE84",
"c. c #EDBA94",
"v. c #EDBD9B",
"b. c #EAC28F",
"n. c #F6C28C",
"m. c #E7CB94",
"M. c #EEC39F",
"N. c #F5C592",
"B. c #F2C59A",
"V. c #F6C99A",
"C. c #E3D995",
"Z. c #DAEA81",
"A. c #DCE28E",
"S. c #DDE193",
"D. c #E2E59C",
"F. c #ECC5A4",
"G. c #E7CBA0",
"H. c #EDCBA4",
"J. c #ECC7A9",
"K. c #EEC9AB",
"L. c #F4CDA4",
"P. c #F1CFAB",
"I. c #F5D1AA",
"U. c #EDCEB1",
"Y. c #EDD1B5",
"T. c #E5D9B5",
"R. c #EAD9B5",
"E. c #E6D3BD",
"W. c #ECD5BD",
"Q. c #EED8BF",
"!. c #F2D4B5",
"~. c #F3DCB6",
"^. c #F0D6BC",
"/. c #F1D9BE",
"(. c #E5E3A6",
"). c #E9E3AD",
"_. c #E8E3B1",
"`. c #ECE1BE",
"'. c #E6D6C3",
"]. c #EBD7C2",
"[. c #E7D9C6",
"{. c #EDDAC5",
"}. c #E7DBC9",
"|. c #EDDDCA",
" X c #F1DDC5",
".X c #F0DECA",
"XX c #EFDFD0",
"oX c #F0DFD0",
"OX c #EDE6C2",
"+X c #EEE0CD",
"@X c #F2E0C7",
"#X c #F1E1CC",
"$X c #EEE2D2",
"%X c #F2E3D1",
/* pixels */
" X#X@X#X%X].{.|.#X}.'.{..X.X X X|.|.|.%X X X#X#X#X#X%X#X#X.X X%X X{.oX.X%X.X.X.X.X%X.X].}.%X%X.X.X%X.XoXoXoXoXoXoX|.].]..X.X.X.X",
"{. X#X#X|.{.}.|.#X#X.X|..X|.].].].{.|..X{. X{. X#X.X X#X%X#X.X.X|.|.XX.X.X|.|.XX}.oX.X}.%X%XoX X.X.X.X X{.{. X%X.XoX.X].]..X.X.X",
"{.[.+X+X.X X|.|.#X#X X X.X.X'.].{.%X{.{. X X X.X%XXX{..X$X%X|.|.XX|..XoX.X.XoX.X[. X{.{..X.X.X X.X.XoXoXoX.X]..X.X XoX{.]..X.XoX",
"|.}.[.[.|.|.XX|..X.X{.{.#X{.}.+X%X%X|.{.]. X.X#XoX|.{..X#X%XXX%X.X X.X.XXX|..X.X%X|.|.{..X#X.X#X%X.XoX%X.X X.X X{.oXoX|.{.{..X%X",
"%X$X}.|..X{.|.|.|.|.}.|.|..X|.|..X.X X].E.W.|.|.'.}.{.{..X%X%X%X#X#X X.XXX|.}. X{.[.|.XX%X.X%X.X.X X X X X X%XoX.XoXoX|.|..X}.oX",
"$X$X#X#X#X|.XX{..X|.{.|.%X#X X X.X/./.|.].W.}.+X{.|.%X|..X%X%X%X%X%X%X#X|.|..X.X'.}.XXoX.X.X.X.X X X X X.X XoXoXoX.X.X].{.oXoX.X",
"+X$X+X|.$XXX}.|.$X{.|.|.$X|.|.#X|.{. X|.W. X%X%X|.|.$X[..X$X|..X%X%X#X#X%X.X.X%X{.|..X.X.XoX%X%X.X.XoX%XoXoX X.X.X.X|.oX{.|.oXoX",
"$X|.|.#X|.|.'.{.|..X.X%X$X%X+X.X.X#X.X X{.|.%X%X|.|.|.|.XX|..X|.%X#X.X.X.X%XXX X.XoX.X X.X%X%X#X.XoX%X%XoX%X X X|.XXoXoXoX|..XoX",
"#X{.{.|.{.{.}.{.|.#X#X%X#X|.|. X{.%X%X.X|.|.+X#XXX|.|.XX%X.X.X|..X%X.X X]. XXXoX|.|.|..X#X#X%X@X.X.X.X.X%X%X.X].{.XXXX|.|.$X|.{.",
"@X+X[.}.}.|.+X X]. X#X%X|.{.|.#X#X%X%X#X X|.|.}.%X|.].{.%X.X#X.X$X%XoX{.E..X|.|.oX{.{.#X X.X.X.XoX X X.X%X.X.XoX.XXXXXXX$XXX{. X",
"#X@X{.[.].{.|.#X{.{.+X|.].].#X#X#X#X#X@X|.{.Q.(.d.p.p.o.p.p.o.p.p.p.p.p.o.p.p.a.A./.#X.X.X#X X#X%X.X X.X#X.XoX.X.X|.oX%X%X%X.X.X",
".X|.|.{.{.{.#X}.{..X$X+X}.|.#X#X|..X+X X{. XQ.S.o.P U U P I K L U P U P U P P T j.`.#X X{.}.@X#XoX%X%X X X.X{.oX.XoXXXXX%X X.X.X",
"].{.].{.{. X X|.$X%X%X%X%X#X%X$XE.|.{.{.Q.(.D.j.R P P I L L K K I L K K K Y Y T d.S.C.T.{.{. X+X}.%X%X.X.XXX}..X.X.X.X.X#X X]. X",
"{.|.+X|..X.X.X#X$X%X%X%X%X|.$X#X|.@X+X+X_.g.o.R Y P L L L L L L L L K L L L L Y R X.a.C./.|.|.#X|.%X%X|.|.oXoX.X{.]. X X.X X]..X",
"@X+X|.Q..X%X%X+XXX$X%XXX|.}.|.%X+X#X+X+X).y.Y I P L J J J J L L K J J L J J J L L Y X.A./..X#X#X.X.X%X.X|.{..XoX|.}. X.X.X.XoX%X",
"|.}.].Q. X X.X].{.{.|.XX|.{.|.!.V.V.Y.+X_.y.Y G E t t t t t t y t t t t t t t t S K X.A.`.~.V.N.P. X%X.XoX{..XoX{..X.XoX]. X.X.X",
"|.E.Q.{. X#X X{. X.X.X%XoX.X%XV.4.4.N..X_.a.Y ~ o @ @ @ @ O   O @   @   @ @ @ X y P R S.E.H.7.2.x.!. X X.X|.{..X|.%X%X%X{. X X.X",
"|.Q.Q.{. X|..X{..X%X%X%XXX%XoXN.2.>.n.E.).u.H W X                             @ e F ..S.W.F.4.>.r. X.X.X.X.X.X|..X.X%X.X XoXoX.X",
" X{.W.|.|.|.{.E.|..X.X#X.X%X XN.2.2.n.U.G.=.r q @                             O 8 r b m.Q.M.4.>.e./.oXoX|.XX%X|.{. X X X X|..X.X",
"|.{.|.@X@X+X#X}..X.X.X#X X|.{.N.2.2.N./.J.+.# .                                 . O 4 c.@XH.4.>.r.W.{.].{.$X%X|.|. X]..XoX.X X%X",
"|.|.|.#X.X.X X#X%X+X|.#X{. X}.N.1.1.x.P.v.O.. + $ % @ & & @ % $ @ % @ & X @ % $ +   1 l./.L.4.>.e./. X{..X%X.XoX%X.X X{..X|. X.X",
"{.|.|.#X|.{.|.#X#X$X|. X.X%X}.n.2.>.4.8.6.1   % f j m Q ! m l l f g k Q W v l g ,   : *.8.7.>.>.r.W.oX%X.X%X.X]. X%XoX.X].{..X.X",
"|.}.#X}.{.{. X|..X|.|.$X%X%X|.N.2.-.-.>.@.,   % c -.} I I } -.-.-.-.C / U ' :.@.<   $ z >.>.-.>.r. X.X%X.X.X.X X.X%X%X X X{.]..X",
" X|.|.|.{.].|.|.}.$X#X|.$X#X.XN.2.-.-.-.#.%   , c -.B ! ! B -.-.-.>.M Q ~ v :.@.3   % h >.-.-.>.r.]..X.X.X%X.XoXoX%X.X]..X.X.X X",
" X X X+X#X|. X#X|.{.{.{.{.}.#XV.2.-.>.>.x ,   % c -.l * * a -.-.-.>.x 8 & i -.@.3   $ l -.-.-.>.r.]..X.XoX%X.X|..X.X X X X X X X",
"{. X#X#X#X X.X|.{.'.].'.E.].#XN.2.>.-.-.x ,   > c -.f + + p -.-.-.-.j % . 2 @.@.2   $ j -.-.>.>.x..X.XoX%X%X.X.X.X X XoXoX X{. X",
"#X#X%X$X|.|.{.{..X|.|.{.{. X.XI.n.r.7.>.@.f 3 p @.-.z 3 3 j -.-.-.-.c 3 2 g -.-.g 2 p x -.@.f f w. X%X.X.X#X.X]..X X X X.X.X XoX",
"%X+X#X%X+X+X+X|./.|.{.]. X X.X X~.!.r.>.-.@.@.-.-.-.-.@.@.-.-.-.-.>.-.@.@.@.-.-.-.#.@.-.>.z , + 5.U.{. X X.X X.X.X.X X X X X.XoX",
"#X{. X#X$X+X+X{.E.{.{.{..X.X X X X!.e.,.:.:.:.:.-.-.-.>.-.@.@.@.@.-.-.-.-.-.-.-.:.:.:.:.:.z % . 5.!..X.X.X.X.X.X%XoX X X X{. X X",
"/.|.#X#X%X|.+X|.{.]. X X#X#X X.X#XR.f.{ ] ] ' } N -.-.-.@.j 3 2 3 3 p #.-.-.-.-.V ] ] ] ' v & . 5.^.oX X X%X.X.X.X.X.X.X.X]. X.X",
"{.|.|.|.|. X|..X.X{.{..X#X X X X#XOXh.T U P P | <.@.>.-.@.3 +       , x -.-.>.-.] P P P P ~ = . 5.!. X].oX%X%X%XoX|.oXoX{.]. XoX",
"#X+X}.|.+X+X+X#X|.{.].]./.U.J.J.P.H.t.G D D D ( N @.@.-.@.p % $ $ $ , c -.-.A C ' P P F D y & . $.v.K.^..XoX.X.X.X.X.XoX.X.X X.X",
"$X%X|.XX$X|.|.|.|. X X[.J.5.+.O.+.+.i 0 0 0 0 8 = % p -.-.x l j j j z @.-.Z `  .H L G e 0 o @ . 1 7 $.c. XoX X{. X.X|.$X|.}.}.|.",
"|.#XXX|.+X+X$X%XoX.X].].v.4 + + + + .       .   .   < -.>.-.-.-.-.-.>.-.-.} I L L L D 0     .     O : 0. XoX.X X X.X|.|.|.}.{.#X",
" X#X|.{.$X%X%X$X%X.XF.v.9.1   $ % , +     +     + . % j z N C Z Z Z Z Z C ' I K J L D w % % +     . - 0.]. X X XoX.X.X|.$X].{..X",
" X.X.X}.%X%X%X%X.X.X%.4 1 # O , z z 2             . $ % % u ^ / / / / / / H K K J L / B x g $   +   : 0.{..X X X X.X%XoX%X#X X X",
"|.$X%X}.%X%X%X%X{.].7   . +   2 @.-.3 . . .       O     O t K L L L L L K L I K J L H Z -.z $       ; 9.E.]. X X|.XXXXoX$X.X{./.",
"#X X.X{.}.+X|.}.{.].6   $ , 2 g -.@.g < 2 $         $ , i w t t t t W F Y L L I | ' [ A -.c p 2 % + % 9.W.]. X XoXoX|.|..X.X/./.",
"|. X X{.{.}.|.W.{.|.6   % c @.-.-.-.-.@.x =         2 c c < @ @ O @ 9 S L I L I [ ;.:.-.-.@.@.@.f + ; 9.W.].].].oX%X.X{..X%X X X",
"]./.{. X X|.|.|. X}.7   % z -.@.-.-.-.-.x %       . 2 -.@.i O       8 ~ I I F G } @.@.@.-.-.>.-.f % : 0.W.].]. X|.|. XoXoX%X.X].",
"|. X{..X X#X#X#X X{.6   $ 2 p a @.-.j 3 2 $         < @.:.m t e X   & q r r r r i < p x -.-.-.-.#.f h z./. X X.X#X%X%X%X%X%X.X].",
".X X.X.X{.#X#X X X#X6         2 @.@.2 O             < #.:.] J D 9                   $ j >.>.-.-.@.@.1.x.W..X%X#X%X.X|..X.X.X.X/.",
" X.X.X{..X@X X X#X#X6         2 @.-.2 .             2 @.:.) D W 8     X X X X & & & * N ;.;.-.-.1.3.7.V.]..XoX X.X|.}.%X%X.X X X",
"#X#X.X{.#X#X#X#X.X}.6         2 @.@.3 +   O         2 @.-.s 0 8 @   o y W W W W W ! ! ~ _ ] ;.-.8.V.L./..X X X X.X.X%X#X%XXX X X",
"#X@X XE. X X#X.X{.].6         3 @.-.3         O     < @.@.2 .       8 S L L U U L L U U Y  .N >.r./.{..X X X X]..XoX|.|.%X%X|.|.",
" X XQ.{. X#X|.{.{.{.6         , g l ,               2 @.-.s 8 8 8 8 r D L L J L L K Y o.a.i.f.7.N.E.|..X X X].].oX.X.X.XoX%X.X%X",
"|. X{.{.+X%X#X X.X#X6   O     O % $ O               2 @.:.) D S S S D I L K L K L L X.Z.).).~.!./.|.$X#X X X]..X%X%X.X.X.X.X X X",
"@X@XW.{.|.|.@X#X#X#X6 O O                           2 @.:.] U U K L K L L L U L K L X.S.OX#X#X+X+X#X%X#X X X]..X%X.X{.|.%X.X.X{.",
"@X XQ.].#X#X#X#X#X#X9.&.$.3 3 3 < < 3 2 2 2 3 3 3 3 3 f l =.g.g.g.h.s.y t t t t t t n C.@X#X#X#X#X#X#X#X.X.X.X.X.X%X%X%X|.|.@X#X",
"#X X{.#X@X X#X#X X X!.K.B.4.@.@.c -.@.@.@.@.@.@.@.@.f $ : 9.T.`.OXOXb.5 @ @ @ @ @ @ 5 c. X#X#X X#X#X+X%X.X.XoX#X#X#X.X.X|.{.|.%X",
"|.{. X.X|.|.{.].Q.W. X XI.7.2.2.2.1.1.2.1.@.@.@.@.-.d # - 9.{.+X+X|.F.6 - - - $ - - 6 c..X#X#X X|.@X{.|..X.X.X%X%X@X#X].{.].E.#X",
"#X|. X{.{.+X X{.E. X X@X~.B.n.N.n.z.n.N.z.#.3 3 3 3 > + % 0. X#X|.#XY.k.9.0.9.9.0.0.l.!..X#X@X{.].%X+X{. X.X.X#X%X#X%X X[.{. X X",
"#X#X X.X|.|. X|.|.|.#X|.].{..X X X/.Q.{.J.+.+   O       ; 9.{..X{.|. X{.{.W.W.{.{.#X X X#X#X@X#X|.#X%X#X%X#X#X#X X.X X X{.|.{.{.",
"#X X.X|.{. X|.|.|.{.@X|.].|..X{.#X.XQ. XK.+.+ O     + . : q. X X X|.[.].+X|. X{. X#X}.{.{.|.@X#X#X#X{.|.#X%X%X#X#X X X.X X X{.#X",
"{.{..X{.].|..X.X{.Q.|.@X#X#X#X{.|.|..X#X XQ././.{.{.].W.#X X X@X X|.{.+X#X#X#X#X|.#X#X{.{.{.@X#X+X#XQ. X.X%X@X X#X%X.X%X@X@X.X#X",
"Y.{. X{.{.|..X.X{.@X X X|.]..X X X{..X/.Q. X{.#X#X{.|.|..X{.{.Q.{.|.|. X#X|.{. XW. X|. X@X#X.X|.+X#X}.|. X#X#X.X@X%X@X#X@X X X.X",
"|. X@X X@X X{.}.%X+XQ.OX{.{.#X|.{.{. X X X{.{.@X#X}.+X#X+XQ.].Q.Q.].E.Q.{. X|. X{.{.@X@X@X#X#X@X{.%X%XoX.X]..X#X X#X X#X X X X@X",
" X@X@X|.|.+X+X+X+X@X@X].|.#X#X{.}.|..X X X{.#X|.#X+X#X@X|.|.|./.Q.W.{.{./. X X|.].{.#X+X#X#X#X#X%X#X.X.X X]..X.X.X@X#X|. X@X@X#X",
"@X|. XQ.{.+X$X+X|.#X+X+X+X#X%X+X|.{.{. X|.{.|.|.#X@X X{.{.@X+X#X+X|.|.|./. X#X#X@X X+X+X%X#X+X#X%X%XoX].].]..X{.{.|.%X#X.X X.X X",
"|..X{.W.{.}.[.{.|. X X].#X%X%X+X|.|.{.|.|.{..X|.|.@X X@X@X+X%X#X{.E.E.Q.@X@X+X#X@X{.+X+X+X+X+X#X%X%X%X XW. X#X.X.X.X}.#X X X]. X",
"{.{./.Q.{.[.].{.[.[.W.+X%X#X#X+X{. X|.+X}.+X+X}.Q.].+X@X+X{.+X+XQ.W.].{.#X#X|.#X+X{.+X%X#X.X.X].|.#X%X X.X.X#X.X{.|.$X$X{.{..X X",
" X{. X^.{.[.}.[.+XQ.E.+X%X#X@X{.{.{. X X#X{.+X+X].].{. X|.+X#X#X/. X#X X@X@X|.|.[.Q.].OX.X|..X|. X.X#X X@X#X@X@X|.}.XX%XoX{. X X",
"{..X@XQ.[.+X%X%X{.{.[.].@X#X].W.Q.Y.W.{.+X|.+X+X+X{.{.@X#X@X|.|. X{.@X|.@X|.|.Q.|.E.E.E.}. X X.X X.X.X.X@X#X#X%X|.].|.%X%X.X].W.",
"Q.#X#X|.+X@X#X%X{.].].|.+X#X@X@X.X X{.|.$X$X+X+X$X|.+X#X@X#XE.Q.|.Q.|.|.@X+X|.|.+X].Q.{. X{./. X]. X#X#X#X X#X$X].].%X$X%X|.E.W."
};
