/* XPM */
static char *result[] = {
/* columns rows colors chars-per-pixel */
"64 64 228 2 ",
"   c #3F3D3C",
".  c #5C2826",
"X  c #413F3B",
"o  c #4B3D3C",
"O  c #573A3A",
"+  c #6F2B2B",
"@  c #792626",
"#  c #663938",
"$  c #793838",
"%  c #4B402F",
"&  c #45413C",
"*  c #4B443D",
"=  c #5B503A",
"-  c #6F4C32",
";  c #685B39",
":  c #76622D",
">  c #766433",
",  c #454342",
"<  c #4A4543",
"1  c #4E4A44",
"2  c #4D4B49",
"3  c #574745",
"4  c #554E43",
"5  c #534D4B",
"6  c #54514D",
"7  c #59544C",
"8  c #5B564C",
"9  c #555352",
"0  c #5A5554",
"q  c #5C5955",
"w  c #5D5A59",
"e  c #644A4A",
"r  c #655B46",
"t  c #645655",
"y  c #635B53",
"u  c #625D5B",
"i  c #6E6452",
"p  c #66615E",
"a  c #6A645C",
"s  c #736957",
"d  c #7D7056",
"f  c #656362",
"g  c #6A6564",
"h  c #6D6865",
"j  c #6D6A6A",
"k  c #736C66",
"l  c #726E6C",
"z  c #7A6E6A",
"x  c #797064",
"c  c #75716D",
"v  c #7A736C",
"b  c #757272",
"n  c #797674",
"m  c #7E7974",
"M  c #7C7A7A",
"N  c #891D1D",
"B  c #991615",
"V  c #A20F0F",
"C  c #AD0A0A",
"Z  c #B10E0E",
"A  c #A1140E",
"S  c #A81716",
"D  c #B31515",
"F  c #B71B1B",
"G  c #872A1B",
"H  c #B7280D",
"J  c #B8340F",
"K  c #812525",
"L  c #8E2B2B",
"P  c #853936",
"I  c #953735",
"U  c #B92A2A",
"Y  c #A23535",
"T  c #B43232",
"R  c #C03030",
"E  c #B94812",
"W  c #885027",
"Q  c #856C29",
"!  c #8C722D",
"~  c #93762A",
"^  c #97792A",
"/  c #836A37",
"(  c #AD6226",
")  c #C2470F",
"_  c #C85B11",
"`  c #CB6A16",
"'  c #D07915",
"]  c #824444",
"[  c #816F45",
"{  c #877448",
"}  c #947D43",
"|  c #8A7A56",
" . c #85786A",
".. c #827B73",
"X. c #847D78",
"o. c #967E7E",
"O. c #9F8339",
"+. c #A58328",
"@. c #B58B22",
"#. c #BD9425",
"$. c #B19037",
"%. c #CC911B",
"&. c #DB9918",
"*. c #D5A21D",
"=. c #DAA71B",
"-. c #DEA91B",
";. c #E2AC1A",
":. c #C49825",
">. c #D8A92B",
",. c #D2A733",
"<. c #E4B128",
"1. c #E4B32F",
"2. c #998247",
"3. c #978558",
"4. c #AE9552",
"5. c #94846A",
"6. c #92866E",
"7. c #9B896A",
"8. c #8A837B",
"9. c #8C8378",
"0. c #938877",
"q. c #A59475",
"w. c #AA9770",
"e. c #A89778",
"r. c #B9A37F",
"t. c #E4BA48",
"y. c #C8AE74",
"u. c #EAC257",
"i. c #E7C66D",
"p. c #858383",
"a. c #898685",
"s. c #8A8887",
"d. c #8C8A8A",
"f. c #938A81",
"g. c #998E83",
"h. c #918E8E",
"j. c #999187",
"k. c #9C948A",
"l. c #949393",
"z. c #999696",
"x. c #9F9A92",
"c. c #9D9B9A",
"v. c #A99C87",
"b. c #A2978B",
"n. c #A49A8D",
"m. c #A49D93",
"M. c #A19E9D",
"N. c #B9A886",
"B. c #ADA398",
"V. c #BAA896",
"C. c #B3A79A",
"Z. c #B5A99B",
"A. c #BBAC9B",
"S. c #A3A1A1",
"D. c #A9A6A6",
"F. c #A9A8A7",
"G. c #ADAAAA",
"H. c #B7ADA2",
"J. c #BCAEA1",
"K. c #B1AEAE",
"L. c #BDB2A3",
"P. c #BDB3A8",
"I. c #B4B2B2",
"U. c #BAB6B5",
"Y. c #BDBBBB",
"T. c #C4AC82",
"R. c #CAB286",
"E. c #D6BA8B",
"W. c #C3B5A5",
"Q. c #C6B8A9",
"!. c #CCBCAB",
"~. c #D2BFAD",
"^. c #D6C193",
"/. c #EACB8D",
"(. c #E5C793",
"). c #F5D39A",
"_. c #F5D799",
"`. c #FDD99D",
"'. c #CEC0AF",
"]. c #D1C1AE",
"[. c #D7C7AE",
"{. c #CEC2B2",
"}. c #D3C4B4",
"|. c #D7C8B7",
" X c #DBCAB7",
".X c #DCCDBB",
"XX c #DFD0BE",
"oX c #E0CCB6",
"OX c #E1CEBA",
"+X c #E4D2BD",
"@X c #EBD5BD",
"#X c #EED8BF",
"$X c #F0D7BE",
"%X c #F0D8BE",
"&X c #F4E2B0",
"*X c #C5C3C3",
"=X c #C8C6C6",
"-X c #CECBC5",
";X c #CCCBCB",
":X c #D2CFCF",
">X c #DDD2C3",
",X c #D3D2D2",
"<X c #D9D7D7",
"1X c #DCDBDB",
"2X c #E5D5C3",
"3X c #EAD7C2",
"4X c #E6D9C6",
"5X c #EDDAC5",
"6X c #E7DAC9",
"7X c #EDDDCA",
"8X c #F1DDC5",
"9X c #F0DECA",
"0X c #EADFD3",
"qX c #F0DFD0",
"wX c #EEE0CE",
"eX c #F2E0C7",
"rX c #F1E1CC",
"tX c #EEE2D1",
"yX c #E8E5DE",
"uX c #F2E3D1",
"iX c #F1ECDE",
"pX c #E5E4E4",
"aX c #E8E6E6",
"sX c #EEEDED",
"dX c #F0EEEA",
"fX c #F3F3F3",
"gX c #FAF8F5",
"hX c #FCFCFC",
/* pixels */
"8XrXeXrXuX3X5X7X9X6X2X5X9X9X8X9X6X7X7XrX8X8XrXrXrXrXuXrXuX9X8XuX8X7XqX9XuX9X9X9X9XuX9X3X7XuXuX9X9XrX9XqXqXqXqXuXqX9X3X3X9X9X9X9X",
"5X8XrXrX7X5X7X7XrXrXrX7X8X9X@X3X5X7X9X9X8X8X3X8XrXrX9XeXuX9X9X9X8X6X0X9X9X9X9X7X6X9X9X6XtXuXuX5X9X9X9X9X5X5X9XqX9XqX9X3X3X9X9X9X",
"5X4XwXwX7X8X7X7XrXrX8X5X8X7X2X5X5XuX7X5X8X8X8X9XuX7X7X8XuXuX7X7XqX7X9XqX9X9XqX9X5X7X3X7X9X9X9X8X9XqX9XqX9X5X3X9X9X8XqX5X3X5X9XuX",
"wX6X4X4X7X9XqX7X9X9X5X5X9X7X7X7XrXuX7X5X3X8X9XrXqX7X7X8XrXuX7XwX9X8X9X9XqX7X9XqXqX8X7X7XrXrX9XrXrX9XqXuX9X9X9X9X5XqXqX7X5X5X9XuX",
"uXtX6X7X9X5X7X7X7X7X6X7X7X9X7X7XrXrX3X#X+X@X7X6X6X5X7X5X9XuXuXuXrX9X8XrX0X6X7X8X9X3X7XqXuX9XrXrX9X9X8X8X8X8XuXuX9XqXqX5X7X9X5XqX",
"wXuXrXrXuX7X7X7XrX7X5X7XuXuX5X8X9X%X%X9X#X@X7XwX6XqXuX7X9XuXuXtXwXtXuXrX9X7X9X9X2X2X0XqXuX9X9X9X8X8X8X8X9X8X9XqX9X9XqX5X5XqXqXqX",
"wXtXwXrX7X7X6X9XwX7X7X7XtX7X7XrXwX3X8X7X#X7XtXtX7X6X9X5X9XqX6X{.!.{.2XrXuX9X9X9X7X7X9X9X9X9XuXuX8X9XqXuXqX8XqX9X9XqX9X9X5X9XqXqX",
"tX7X7X7XqX7X4X6X7X9X9XuXuXrXwXrX8XrXeX7X5X5X6XwX7X7XqX6X7X6X|.x.a.f.!.3X7XuXrX9X7X6X5X3X9XuXuXrX9XuXuXuXqXuX8X8X5XqX0XqXqX7X9XqX",
"uX8X3XrX5X7X7X5X7X9XwXuX9X7X7X8X7XrXuXrX3X.XC.Q.>XwXwXwXwX{.B.U.R.4.q.H.OX7XwX7X6X!.B.}.5X7XuXrXqX8X9X9XuXuX8X5X7XqX0X7X8XuX7X7X",
"eXrX4X4X6X4XwX8X#X8XrXuXrX3X7XrXrXuXuX7X XA.7.e.P.XXXX#XwXH.9.^.i.,.| k.oXeX7X5X{.v.3.v.W.5X7X7X9X8X8X9XuX9XqX9X7XqX9X0XqXqX8X3X",
"rX8X4X4X@X3X7XwX5X5X9X7X5X5XrXrXrXrXrX5XL.7.$.2.6.{.2XwX4XH.6.4.>.#.{ k.+X8XeXXXB.3.$.d 0.4XeXwXuX9X8X9XrX9XqX9X7X9XqXuXuXrX9X9X",
"9X7X7X5X8X7XrX7X6X9XuXtX4XwXrXrX7X9XwX5X|.A.3.6.L.+XwXtXtX>XH.3.> [ v.'.4XwX6X+X!.e.[ q.W.2XeXwXqXuXuX9X8X8X7XqX9XqX0XqXuX9X9X9X",
"3X5X3X3X5X8X8X7X7XuXuXuXuXuXuXwX3X5X7X3X4X].x m Z.XXwXwXwX{.B.j.6.| v.{.eXeXwX2XL.m y V.+X5X7XeX6XuXuXqX9XqX6X9X9X5XqX9XrX8X5X5X",
"3XwXwXrX9XrX9XrXtXiXuXuXwX5X7XuX7XrXwX7XeX{.c p ..P.2XeX XB.s.-X(.,.3.n.'.@XXX'. .7 8 V.#X5XwXwX7XuXuX7X7XqXqX9X5X3X9X8X9X8X5X9X",
"8X7X7X#X9XrXuX9X7XuXuXtXqX2XqXtXtXuXwXwXeX{.c s.I.h.B.{.0.M.-XiX_.1.:.4.6.Q.L.9.d ; q A.#XeXwXeX9X9XuX9X5X5X9XqX7X6X8X9X9X9X9XqX",
"7X7X5X#X8X8X7X5X3X5X7XqX7X7X7X7XeXwX6XwXwX{.c S.1XK.x.v.3.N.iX&Xi.;.-.#.2.q.x.j.O.> 8 A.@XeXwXwX9X8XuX9XqX5X9XqX5X9X9X9X8X8X9X9X",
"7X@X3X8X8XeX8X3X8X9X9XuXqX9XuX9XrX9X8X9XqX}.b S.fXdXI.5.$.i.&Xu.<.;.;.;.:.5.x.|.4.> 3 C.+X2X0XqXuX8X7X8X8X7X7X9X7XrXuXuX9X8X8X9X",
"7X@X@X5XrX7X8X7X9XuXuXuXqXuXuXrXrX9X8X@X5X|.p.G.fXgXyX[.t.1.u.<.;.;.;.;.,.^.^.4.O.: 4 A.+X2X6XqX9X9X9X7X9X9X9X7X9X9XuX9X8X9X9X9X",
"eX5X@XrXwX5X7X@X8X9X9XrX7XrX7X8X8X9X8X@X@X|.X.F.dX&X_.i.1.;.<.;.;.;.;.;.1.i.y.+.^ > 0 J.3X3X3X7X5X7XqX9X7XqXuX7X5X8X8X9X8X7XqX9X",
"7X5X4XeXeXwX7X7X7X9X9XrX9X9X7X8X8X8X8X8X3X].b M.uXu.1.<.;.;.;.;.;.;.;.;.;.>.#.+.^ > t J.5X3X9X9X7X5X5X5X7XtXuX7X7X8X3X8XuX9X8XqX",
"7X7X7XrX7X7X8XrXuXrX7XrX7X7X7X8X3X3X@X#X8X~.l c.4Xt.=.=.=.=.=.;.-.*.*.=.*.@.^ ^ ^ : 6 H.7XtXiXuX7X5X5X7X9XuX7XqXqX8X5X9X7X8X9X9X",
"7X4XwXwX7X5X7XrXwXtX7X8X9XuX6X7X8X8X3X7X5X}.h b g.} ! ~ ~ ~ ~ ^ O.+.~ ~ ~ : : ; ; ; 7 H.7XuXuXqX9X7XqXuX9XuX8X5XqXuXqX9X3X5X5X9X",
"7X4XrX7X3X7X8X7X9XwX7XwXuXuX7X6X9X9XrXuX5X}.h 0 q * X & o 4 r i s s * * * X X , 6 6 0 P.9XqX0X8X9XqXqXuX9XrX9X8X8XuXuX8X5X5X9X9X",
"eX8X8X7X5X5X5X7X6XwXrXwXwXrXrX7X9X9X5X7X5X'.h M M.q & & 7  .R.E.^.r.s 1 , & , 5 p.M p W.3X9X8X8X9X9X7X9X9XrX9XqXrXuX8X5X8X9X9X5X",
"8X8X8X9XrX7X8XrX7X7X5X3X5X6XtXwX9X7X7X8X$X!.g a.U.g s 5.q.T.).`._._.r.q.7.5.d w M.l.g W.5X9XqX9X9X9X9X9X9XuX9X7X8X8X8X8X8X9X8X8X",
"7X5XrXrXrXwX8X7X5X2X3X2X@X3XrXrX8X7X7X9X5X!.h d.U.l 5.(.E.(.`.`.`._.).(.E.(.e.u G.M.g J.3X9X9X9XuXuX9XqXuXqX9X8XuX8X8X9XqX8X8X8X",
"rXrXuXtXwX7X4X5X9X5X9X5X5X8XrXrX9X9XuX2XOXW.g s.U.h 5.E.7.r.).`.`.`._.y. .E.w.u G.M.g C.~.OX5X0X9XqXqX9X8XuX9X9X8X8X8X8X9X9X8XqX",
"uX7XuXuXrXeXrX8X3X7X5X5X8X8X9X9X7X5X.Xn.f...6 p.U.h  .(.T.R.).).`.`.`.^.y.(.w.q G.S.u m g.b.~.3X5X8X5X9X8X9X9X9XuX8X8X8X8X8X9XqX",
"rX3X8XrXwXwX7X5X@X8X5X3XrX9X8X8X8X[.C...b j 5 p.K.u d T.T.R.E.)./.E.E.^.).).e.t G.K.n b b b C.}.8X9X9X9X9X9X9X8XuX9X8X9X9X3X8X9X",
"8X9XrXwXuXwXwX7X5X3X5X8XuXrX8XeX5Xn.b K.*XK.l p.M.0 < 7 y u  .R.r.x k q.(.(.q.u K.:X*X*XU.M.n j.2XuXqX5X8XuX9X9X9X9X9X9X8X3X8X9X",
"3XwX7X7X7X7X7XrX9X5X5X8X9X8X8X8X4Xb.j Y.<X:XG.D.M.0   9 p.h.f.0.f.M.c.k.6.5.s 0 K.<X<X0X;XD.g ..OX8X3X8XqXuXuXqXqX9XqXqX8X3X8XqX",
"rXwX5X7XwX7XwXrX7X5X3X5X8X9X3X8X2Xk.j I.:X:X=XI.a.5 0 M I.K.s.u b D.*XS.l 9 , 2 h.Y.:X:X=XD.u m OX5X8X8X9XqXqX9X9X8X9XqX7X7X8X9X",
"uXuX7XtXtX7XwXwXwX3X8X7X7X9X7X3X+Xb.g c.K.K.G.p.9 2 n I.K.a.9 5 5 u z.S.h.w , 2 f p.G.K.K.M.j X.+XrXrX9XqX9X9X8X8X9X7XwX7X6X6XwX",
"7XrX7X7XwXwXwXuXrXeX8X7XwX7X7X5X+X!.b.m b j j 0 ,   w n b w 7 5.d 2 f j j 5 , 9 d.h.n l l l g.W.5X9X9XuXqX9X8X8X9X9X7X7X7X4X5XrX",
"7XrX7X5XtXuXtXtXtX8X7X7X7X8XeX5X3X2X|.a.z l g 0 2 f b M M n M b.q.n n M M M M p.Y.S.q p k ..Q.3X7X9XrXrX9X9X8X8X9XrX9X7XwX5X5X8X",
"8XrX7X7XtXuXuXtXrX8XrXrXrXrXrXrX3X3XqX>X|.|.~.f.j Y.pXpXpX1XY.M z.1XpXaXpXpXpXpX1XS.w B.|. X5X9X9XeXrXwX9X9X8X8X8X9XtXtXtXrX8X9X",
"7XrXuX7XwXuXtXwX7X@XwXrXuXrXuXrXeX9XrX7X5X5X>Xj.f *XsXhXsXpX=Xb h.1XfXhXhXfXaXaX1Xc.w Z.2X8X9XqXeXrX9X7X5X5X8X3X7XqXqXqXtX9X8X$X",
"9X8X7X5X7X7X7X7X7X@X3XrXuXuXrX8X9X9X7X3X6X.XA.z 9 l.;XsXpX;XS.f n I.pXfXfXpX;XI.D.M 9 8.W.5XrXqX8XrX5X@X3X3X9X8XrXtX7X8X7X9X$X$X",
"7X8X7X#X7X5X3X#X5X7XeX7XwX7XwX8X8X5X3X3X>XW.f o o e h.;X,XS.j 2 9 M U.,X:X;XS.u 5 3 < < ..OXqXuXrX7XrX7X5X8X3X5XuXuX7X5X9XrX9X8X",
"3X%X5X8X7X7XwX7X8X7XeX%X8X5X9XeXrXwX8X@XC.l o # L L ] l M l.c.w n K.h.n b b w o @ + o X v OX7X9X7X7XrX9X3X3X$X5X7X7X7XqXqXuXrX$X",
"8X9X5X8X9XrXrX8X8X8XeXeX8X7XuXrXrXeX7X2Xg.3 # L U S K e p.K.*Xj h.1XM.j < # $ + B K o ,  .>X9X3X@X3XrX8X8X8X8X9X9XuXuXuXuXuX9X3X",
"8X9X8XrX7XrXeX8X8XrXrX8X8XrXrX7X8X7X4X|.9.O I T U Z K u *XpX=Xj l.sX1Xz.t I T T S N O 3  .~.3X3X7X9X7X7X5X9XrXuXuX7X7X9X9X9X9X$X",
"8X7X9X7X9XeXrX8XeXrXrXeX#X3XeXwX7X7X}.9.t O Y U D C @ t :XsX;Xb l.sXfXG.e Y R R D V B N $ x Q.@X@XrX9X7X5X9X9X8XtX7X7XuXuX9X8X8X",
"rXrX9X5XrXrXrXrXrX4XrX8X8X3XrXtX5X2X!.a O P T F C C K t :XsX;Xj l.fXfXK.e Y R R D C C C N 3 Z.OX7X8X7XqX8X8X8X8X8X9XwXrXuX7X9X9X",
"rXeX8X@X8X8XrXrX5X3X5X3X7X7XrX7X3X@X!.t $ T U F Z V K a ,XfX=Xj l.fXhXK.0 I T R D C C C N o n.|.3X7X6X9X8X8X8X3X9XqX7X7XuXuX7X9X",
"8XeX3X3X8XeX8X3X5X5X5XeXrXrXrX7X3X@XQ.t P T F Z C C K g ,XsX=Xj l.sXfXK.0 3 P T D C C C N O t f.+X5X7XrX8X8X3X5XqX9X9X9XrXuX9XuX",
"5XeX3X7XrXrXuX7X7XrX7X7X7XrX9X8X3X!.f.3 P U D C C C K j ,XsX;Xb l.sXhX;Xp.0 $ T D C C C B + O n .X7XrXrX8X8X3X9XuXuX8X9X9X9X8X8X",
"eX8X@X5XwX7XeXrXrXrX8X9XtXuXrXrX4Xk.2 O W R D C C B P M 1XsX=Xb z.fXhXsX=Xl $ U D Z C C C B # z Q.5XuXrX8X3X8X9XqX9X7X9XuX7X8X7X",
"rX8X#X3X9XrXrXrXuXrX#X5XuXrXeXrX2Xf.3 I ( ` H Z V $ o.,XfXfX=Xb z.fXhXhX1Xz $ S F F C C C A . % g Q.7XrX9X7X9X9XrXuXrXuXwXrX8XrX",
"eX8X7XrXeX8XrXrX8X8X$X#X8X8X8X8X2Xf.- ( ` ` _ J B # z.fXhXfX=Xb l.fXhXhXpXl O @ S D C C H E G . , Z.4XwX7XrXrXrXrXrXrX9X6X5XwXrX",
"9X3X8X8X7X7X8X3X@X#X8X8X8X7X8X8XOX0.; @.` ) ` E B e c.fXhXsX=Xf d.sXhXhXpXs.9 O G S H H ) ' J @ * k.W.'.+X7XrXuXuXeXrX5X4X@X@XrX",
"rX7X8X7X7X7X8X3X@X%XrXeX8X7XeX8X X0.; #.&.' ) I # 0 M.sXsXaX=Xj p.<XhXhXfX;Xl.0 o W ' ' ` E ` ~ o 4 8 a L.5XeXeXrXrXuX5X7X3X7X8X",
"rXrX9X7X7X7X8XrX8X7XeXwX5X4XwX+Xn.k ; #.;.&.' W w l.;XgXfXaX=Xj f z.<XfXhXfX;Xh.8 - _ _ _ _ &.%.~ Q : * Z.wXwXwX8X9X8X8X8X5X5X5X",
"rXeX9X7X7X8X7X7XwX3XwX7X@XwX7X!.h 2 ; :.;.=.:./ h ;XfXhXfXpXK.u , w S.<XfXgXaX=Xk - J J ` &.;.-.*.%.! * B.wXwXwXrX8X8X9X8X8X7XrX",
"3X8X8X5X3X7X9X9X3X8X7X8XrXrXwX!.a & = @.*.:.{ r b <XgXgXpXF.f 9 , , f z.<X1X<X*Xh / %.&.*.;.=.=.%.! = 4 Z.wXeXeXuXuXeXuXeXeX9XrX",
"@X$X8X5X3X9X9X8X7X8XeX8X5X5XeX Xn.g % : ! } n.D.I.1XsX1XS.b w 8.j.8.w j d.l.d.X.0 / &.&.-.*.+.! : ; p j.{.eXwXeXeXrXeXrXeX8X8X8X",
"7X8XeXeXeXeX3X7XrXwX%X5X5X%XrXeX Xn.y & & y G.=X=XY.Y.F.g q ..W..X].9.c v k y , , > +.#.#.@.> 7 y k k..X5X5X9XrX9XeXrX9X8X8XeXrX",
"rXeXeX8X7XwXrXwXwXeXeX4XwXeXwX7X6X.XJ.p 1 2 p j g u u u 6 ..!.@X#X@X|.}.].].g.2 1 4 = r = = * v Q.}.>X5X8X3X8X9X9XeXrX7X8X8X8XrX",
"8X8X8X3X5XwXwX7X7XeXwXeXwXeXtXwX7X5X XV.b.j.b.m.m.k.k.n.b.W.4XrX7X5X5X3X3X@X'.B.n.v.x.n.n.k.n.H.6XuXqX7X3X@X7X7X7X7XuXrX8X8X8X8X",
"7XrX3X@X5X6X4X7X7XeX5X4XwXuXuXwXwX7X5X2X4X2X2X2X4X@X@X@X5X4XuXrX5X3X2X@XeX7X5X5X#X+X2X4XwXXX4XeXuXrXuX8X@X8XrX8X8X7X7X7X5X8X8X8X",
"3X8X8X@X5X4X5X4X4X2X@X7XuXuXeXwX3XeXrXwX7XwXwX7X2X4XeXeXrX7XwXwX#X%X5X3XrXrX7XrXeXeXwXuXrXrX8X5X7X9XuX9X8XrXrX9X7X7XtXtX7X5X9X3X",
"8X3X8X%X4X6X7X4XeX5X@XwXuXrXeX5X8X%X8X8XwX5X7XwXeX@X3X7X7X7XrXrX#X8XrX8XeXeXwX8X4X2X2XeX9X5X7X9X8X9XrX8XrXeXeX9X7X5X0XuX9X5X9X8X",
"3XrXeX%X5X7XuXuX7X7X4X2XeXeX4X%X@X@X#X4X7X7XwXwXwX7XeX8XeXeX7XwX7X#XeX7XeXwX5X3X7X@X@X@X7X5X8X9X8X9X9X8XrXeXrXuX7X3X7XuXuX7X3X$X",
"%XrXrX7X7XrXeXuX5X@X5X7XwXrXeXeXrX3X5X7XtXtX7XwXtX7XwXrXeXrX2X@XeX@X7X7XeXwX7X7XwX4X@X5X8X3X$X8X3X9XrXrXrXrXrX7X5X@XuXtXuX7X@X@X"
};
